<?xml version="1.0" encoding="utf-8"?>
<!-- Generator: Adobe Illustrator 19.2.1, SVG Export Plug-In . SVG Version: 6.00 Build 0)  -->
<svg version="1.1" id="Layer_1" xmlns="http://www.w3.org/2000/svg" xmlns:xlink="http://www.w3.org/1999/xlink" x="0px" y="0px"
	 viewBox="0 0 120 120" style="enable-background:new 0 0 120 120;" xml:space="preserve">
<style type="text/css">
	.st0{fill:#FFFFFF;}
</style>
<path class="st0" d="M59,99.4c-20.4,0-37-16.6-37-37s16.6-37,37-37s37,16.6,37,37S79.4,99.4,59,99.4z M59,28.5
	c-18.7,0-34,15.2-34,34c0,18.7,15.2,34,34,34s34-15.2,34-34C93,43.7,77.8,28.5,59,28.5z"/>
<rect x="57.4" y="35.7" class="st0" width="3" height="47.3"/>
<polygon class="st0" points="59.4,86 33.8,60.4 35.9,58.3 59.4,81.8 81.8,59.3 84,61.4 "/>
</svg>
