<?xml version="1.0" encoding="utf-8"?>
<!-- Generator: Adobe Illustrator 19.2.1, SVG Export Plug-In . SVG Version: 6.00 Build 0)  -->
<svg version="1.1" id="Layer_1" xmlns="http://www.w3.org/2000/svg" xmlns:xlink="http://www.w3.org/1999/xlink" x="0px" y="0px"
	 viewBox="0 0 300 150" style="enable-background:new 0 0 300 150;" xml:space="preserve">
<style type="text/css">
	.st0{fill:#BACBE1;}
	.st1{fill:#5286B4;}
	.st2{clip-path:url(#SVGID_2_);}
	.st3{fill:#00578E;}
	.st4{fill:#FFFFFF;}
	.st5{fill:none;stroke:#000000;stroke-width:0.3933;}
</style>
<g>
	<path class="st0" d="M294.2,135.3H2.5c0,0,2.6,3.9,3.3,4.8c-0.6,0.9-3.3,4.8-3.3,4.8h295c0,0-2.7-3.9-3.3-4.8
		c0.6-0.9,3.3-4.8,3.3-4.8H294.2z"/>
	<path class="st0" d="M150,23.6c2.1-9.8,23.4-11.2,23.4,5.1c0,10.7-6.3,17.8-23.4,28.1c-17-10.3-23.4-17.4-23.4-28.1
		C126.6,12.4,147.9,13.8,150,23.6z"/>
	<polygon class="st1" points="294.2,140.1 296.3,143.1 3.7,143.1 5.8,140.1 3.7,137.1 296.3,137.1 	"/>
	<g>
		<path class="st0" d="M294.2,49.1c0.6-0.9,3.3-4.8,3.3-4.8H180.6c2.6-4.8,3.9-10,3.9-15.7c0-12.7-8.2-22-20.5-23.3
			c-4.8-0.5-9.7,0.4-14,2.6c-4.3-2.1-9.2-3.1-14-2.6c-12.3,1.3-20.5,10.7-20.5,23.3c0,5.7,1.3,10.9,3.9,15.7H2.5
			c0,0,2.6,3.9,3.3,4.8c-0.6,0.9-3.3,4.8-3.3,4.8h139.7l-4.1-3.2c-9.2-7-13-13.4-13-22c0-7.8,4.6-13.1,12-13.8c4.3-0.5,9,1,11.8,3.6
			l1.2,1.2l1.2-1.2c2.8-2.7,7.4-4.1,11.8-3.6c7.4,0.8,12,6.1,12,13.8c0,8.6-3.8,15-13,22l-4.1,3.2h139.7
			C297.5,53.9,294.8,50,294.2,49.1z"/>
		<path class="st1" d="M296.3,46.1H179.5c-1.4,2.1-3,4.1-4.9,6h121.7l-2.1-3L296.3,46.1z"/>
		<path class="st1" d="M125.4,52.1c-1.9-1.9-3.5-3.9-4.9-6H3.7l2.1,3l-2.1,3H125.4z"/>
	</g>
	<g>
		<defs>
			<path id="SVGID_1_" d="M150,23.6c2.1-9.8,23.4-11.2,23.4,5.1c0,10.7-6.3,17.8-23.4,28.1c-17-10.3-23.4-17.4-23.4-28.1
				C126.6,12.4,147.9,13.8,150,23.6z"/>
		</defs>
		<clipPath id="SVGID_2_">
			<use xlink:href="#SVGID_1_"  style="overflow:visible;"/>
		</clipPath>
		<g class="st2">
			<path class="st3" d="M126.6,41.7h13l0.7,0.3h4.2l-0.2-0.3h6.5c-3.4,2.1-5.5,1.1-5.5,1.1h-4.6l1.9,0.7h9.5l1.8-1.8h4.2l-0.9,1.5
				c0,0,16.2,0,16.3,0v-1.7c0,0-47,0-46.9,0C126.6,41.4,126.6,41.7,126.6,41.7z"/>
			<polygon class="st3" points="173.4,12.2 126.6,12.2 126.6,13.7 158.1,13 157.9,14.1 173.4,14.1 			"/>
			<path class="st3" d="M173.4,14.9h-46.9c0,0.1,0,1.4,0,1.4l31.6-0.6l0.2,1l9.6-0.1c0,0,1.6-1.8,2.6,0c0,0,2.9-0.1,2.9,0
				C173.4,16.8,173.4,14.9,173.4,14.9z"/>
			<path class="st3" d="M173.4,17.7h-46.9V19l32.1-0.8l0.5,1.1h7.7c0,0,2.1-1.6,4.1,0.1c0,0,2.6,0.1,2.6,0V17.7z"/>
			<path class="st3" d="M170.4,22c0,0,3,0,3,0.1c0,0.1,0-1.8,0-1.8h-46.9v1.1l32.8-0.8c0,0,0.5,0.6,0.6,1.5l5.5-0.1l0.4-0.5
				c0,0,3.2-1.2,4.6-0.1L170.4,22z"/>
			<path class="st3" d="M173.4,22.9h-46.9c0-0.1,0,0.8,0,0.8c0.1,0,21.4-0.6,21.4-0.6h12.1c0,0,0.2,0.7-0.1,1.4l4.2-0.2l0.6-0.6
				l5.7,0l-0.3,0.8h3.2V22.9z"/>
			<path class="st3" d="M126.6,26.2l17.8-0.6l2.2,0.4h13.2c0,0-0.7,0.6-1.8,1.2l4.4-0.1c0,0,1-1,1-1.1c0-0.1,6.3,0,6.3,0
				s-0.9,1.3-0.9,1.2c0-0.1,4.6,0,4.6,0v-1.8c0,0-47,0.1-46.9,0.1C126.6,25.4,126.6,26.2,126.6,26.2z"/>
			<path class="st3" d="M161.4,28.3h6.8l-0.8,1.4h6v-1.9h-46.9v0.9l23.2-0.7C149.7,27.9,156.7,31.6,161.4,28.3z"/>
			<polygon class="st3" points="173.3,32.2 165.5,32.2 166.8,30.6 150.2,30.6 126.6,31 126.6,30.4 173.4,30.4 173.4,32.2 			"/>
			<path class="st3" d="M159.9,33.3"/>
			<path class="st3" d="M163.9,33.3l-1.6,1.8h11.1v-2.2H160l0,0.3c0,1.4-1.5,2-1.5,2h-2.8l-0.3-0.4h-1.6l-1.8,0.2
				c0,0-11.8,0.3-16.5-0.1l-1.7-0.5h4.8l-0.4-0.5l-5.1-0.1l-1.8-0.3h-4.8v-0.4h15.2h5.5l5.3-0.1c0,0,7.4-3.4,7.3-0.2"/>
			<path class="st3" d="M143.9,33.9"/>
			<path class="st3" d="M134.4,36.2l-7.8,0.2l0-0.5l46.9-0.1c0,0,0,2.2,0,2.1c0-0.1-12.8,0.1-13.1,0.1c-0.3,0,1.5-2,1.5-2h-3.7
				l-1.9,1.9h-1.1l0.6-0.7l-0.1-0.4l-0.5,0.1l-1.3,1.2h-12.1c-0.2,0.1-0.8-0.6-0.8-0.6h-3l-0.6-0.2l-1.6-0.4h5l-0.5-0.4
				C140.3,36.6,135.3,36.8,134.4,36.2z"/>
			<path class="st3" d="M144.3,39.5"/>
			<path class="st3" d="M126.6,39.1v-0.4h46.9v2.1h-14.9l1.3-1.8h-4.2l-1.4,1.8h-2.4l2.1-1.8l-1.1-0.1c-3.7,4-9.4,1.1-9.4,1.1h-0.9
				l-2.9,0l-1.8-0.6h5.2l-0.6-0.6L126.6,39.1z"/>
			<path class="st3" d="M142.2,44.2l-15.6,0.2c0,0,0-0.4,0-0.4h46.9v1.9h-17.6l0.8-1.8h-4.9C151.8,44.1,148.4,48.1,142.2,44.2z"/>
			<path class="st3" d="M126.6,46.8v0.6h0.1l28.6-0.3c0,0-0.7,2.2-0.8,2.2c-0.1,0,19,0.1,19,0c0-0.1,0-2.5,0-2.5H126.6"/>
			<path class="st3" d="M126.6,46.8"/>
			<path class="st3" d="M173.4,50.2h-46.9v0.5H154l-0.6,1.6h20.1C173.4,52.2,173.4,50.1,173.4,50.2z"/>
			<g>
				<rect x="126.6" y="61.4" class="st3" width="46.9" height="2.4"/>
				<path class="st3" d="M150,62.6"/>
			</g>
			<g>
				<rect x="126.6" y="58.7" class="st3" width="46.9" height="2.1"/>
				<path class="st3" d="M150,59.7"/>
			</g>
			<path class="st3" d="M126.6,56.1"/>
			<path class="st3" d="M126.6,58.1h13.1c-5.7-0.1-7.8-1.5-7.8-1.5l-0.1-0.5c-0.1-0.1-5.2,0.1-5.3,0V58.1z"/>
			<path class="st3" d="M131.8,56.1"/>
			<polygon class="st3" points="173.4,53 126.6,53 126.6,55.3 130.4,55.3 128.2,53.4 152.8,53.4 151.4,55.2 173.4,55.2 			"/>
			<polygon class="st3" points="127.5,52.5 126.6,51.8 126.6,52.5 			"/>
			<path class="st3" d="M131.8,56.1"/>
			<path class="st3" d="M150.7,56.1l22.7,0v2h-31.1C142.4,58.1,150.6,57.9,150.7,56.1"/>
			<g>
				<rect x="131.8" y="56.1" class="st3" width="18.9" height="0.5"/>
				<path class="st3" d="M141.3,56.3"/>
			</g>
			<path class="st3" d="M134.9,32.5h17.3c0,0-1.4-0.1-2-0.4C150.2,32.1,150.4,30.2,134.9,32.5z"/>
			<path class="st4" d="M143.9,36.3c0,0,0.4,0.4,0.4,0.4c0,0,0.6,0.5,1,0.6h1.1c0,0,0.1,0.4,0.5,0.4c0,0,2.1,0.1,2.1,0.1
				s0.3,0,0.4-0.4c0,0-0.1-0.2-0.1-0.2c0,0,0,0.6,0,0.6l0.3,0.2l1.2,0c0,0,1.2-0.1,1.4-0.5l0-0.3h0.2l0,0.4l0.9,0c0,0,0.3,0,0.6-0.6
				l0.4,0l0.1-0.4l-0.2-0.1l-8.3,0l-0.2-0.1l-0.1,0.1l-0.2,0h-0.1c0,0-0.6,0-0.5,0c0,0-0.2,0-0.2,0
				C144.6,36.2,143.9,36.3,143.9,36.3z"/>
		</g>
	</g>
	<path class="st1" d="M127.6,52.1h9.3c-8.9-6.8-13.7-13.7-13.7-23.4c0-8.6,5.3-14.7,13.6-15.6c4.7-0.5,9.8,0.9,13.2,4.1
		c3.3-3.2,8.5-4.6,13.2-4.1c8.2,0.9,13.6,7,13.6,15.6c0,9.8-4.7,16.6-13.7,23.4h9.3c6.2-6.1,10.4-13.5,10.4-23.4
		c0-11.7-7.6-20.4-19-21.6c-4.8-0.5-9.7,0.5-13.8,2.8c-4.1-2.2-9-3.3-13.8-2.8c-11.3,1.2-18.9,9.9-18.9,21.6
		C117.2,38.6,121.4,46,127.6,52.1z"/>
</g>
<g>
	<path d="M37.4,114.4c-0.3,0.6-0.6,1.5-0.7,2.1c-0.1,0.1-0.4,0.1-0.4,0c0.3-1.4-0.1-2.1-1.7-2.1c-1.1,0-2.6,0.3-4,1.8
		c-0.8,0.8-1.9,2.6-1.9,4.7c0,2.2,1.1,3.4,3.1,3.4c1.6,0,2.6-1,3.4-2.2c0.2-0.1,0.3,0,0.4,0.1c-0.1,0.4-0.5,1.3-1,2.2
		c-0.3,0-0.8,0.1-1.2,0.2c-0.5,0.1-1,0.2-1.5,0.2c-2,0-4.4-0.9-4.4-4.2c0-1.8,1-3.6,2.3-4.7c1.3-1.2,3.2-1.9,5.3-1.9
		C36,113.9,37,114.2,37.4,114.4z"/>
	<path d="M38.5,119.6l-0.7,2h0.1c0.5-0.9,1.2-2.1,1.7-2.7c0.4-0.5,0.8-0.8,1.1-0.8c0.6,0,0.6,0.5,0.6,0.8s-0.1,0.7-0.3,0.9
		c-0.2,0.2-0.4,0.3-0.5-0.1c-0.1-0.4-0.2-0.6-0.3-0.6c-0.1,0-0.3,0.2-0.6,0.5c-1,1.2-1.8,3.1-2.7,5c-0.1,0.1-0.1,0.2-0.3,0.2
		c-0.2,0-0.6-0.1-0.5-0.4c0.2-0.6,1.2-3.4,1.6-5c0-0.2,0-0.3-0.1-0.3c-0.4,0-0.8,0.4-1.1,0.8c-0.2,0-0.3-0.1-0.3-0.3
		c0.5-0.8,1.1-1.5,1.9-1.5C38.9,118.1,38.6,119.1,38.5,119.6z"/>
	<path d="M46.2,120.1c0,0.9-0.5,2.4-1.7,3.6c-1,1-1.8,1.1-2.3,1.1c-1,0-1.7-0.7-1.6-2.1c0.1-1,0.6-2.5,1.7-3.5c0.8-0.8,1.5-1,2.2-1
		C45.8,118.1,46.3,118.9,46.2,120.1z M43.4,119.3c-0.9,1.2-1.5,3.1-1.6,3.9c0,0.6,0.2,1,0.6,1c0.3,0,0.7-0.1,1.2-0.8
		c0.7-0.9,1.4-3,1.5-3.8c0-0.5-0.1-1-0.6-1C44.2,118.5,43.8,118.7,43.4,119.3z"/>
	<path d="M50.5,119c0,0.3-0.2,0.4-0.3,0.5c-0.1,0-0.2,0-0.3-0.1c-0.3-0.3-0.5-0.5-1-0.5c-0.5,0-0.6,0.4-0.6,0.6
		c0,0.3,0.1,0.7,0.5,1.4c0.4,0.7,0.6,1.1,0.6,1.7c0,0.4-0.2,1-0.8,1.5c-0.4,0.4-1,0.6-1.6,0.6c-0.6,0-1-0.5-1-0.8
		c0-0.2,0.1-0.3,0.2-0.5c0.1-0.1,0.3-0.1,0.4,0c0.2,0.2,0.7,0.6,1.1,0.6c0.4,0,0.8-0.4,0.8-0.9c0-0.3-0.2-0.8-0.6-1.4
		c-0.4-0.7-0.6-1.2-0.6-1.5c0-0.6,0.3-1.1,0.9-1.7c0.5-0.4,1-0.5,1.2-0.5C50.1,118.1,50.5,118.6,50.5,119z"/>
	<path d="M54.2,119c0,0.3-0.2,0.4-0.3,0.5c-0.1,0-0.2,0-0.3-0.1c-0.3-0.3-0.5-0.5-1-0.5c-0.5,0-0.6,0.4-0.6,0.6
		c0,0.3,0.1,0.7,0.5,1.4c0.4,0.7,0.6,1.1,0.6,1.7c0,0.4-0.2,1-0.8,1.5c-0.4,0.4-1,0.6-1.6,0.6c-0.6,0-1-0.5-1-0.8
		c0-0.2,0.1-0.3,0.2-0.5c0.1-0.1,0.3-0.1,0.4,0c0.2,0.2,0.7,0.6,1.1,0.6c0.4,0,0.8-0.4,0.8-0.9c0-0.3-0.2-0.8-0.6-1.4
		c-0.4-0.7-0.6-1.2-0.6-1.5c0-0.6,0.3-1.1,0.9-1.7c0.5-0.4,1-0.5,1.2-0.5C53.9,118.1,54.2,118.6,54.2,119z"/>
	<path d="M56.2,119.4c0.1-0.3,0.1-0.5-0.1-0.5c-0.3,0-1,0.6-1.5,1.1c-0.1,0-0.3-0.1-0.2-0.3c0.5-0.7,1.6-1.7,2.5-1.7
		c0.4,0,0.7,0.5,0.5,1l-1.4,3.5c-0.1,0.2-0.2,0.5-0.2,0.7c0,0.3,0.1,0.6,0.5,0.6c0.4,0,1-0.4,1.7-1.2c0.9-1,1.4-2.3,1.4-3
		c0-0.4,0-0.8-0.1-1.1c0-0.3,0.3-0.6,0.6-0.6c0.5,0,0.6,0.6,0.6,1c0,1.1-1.2,3.4-2.5,4.5c-1.2,1-2.1,1.1-2.5,1.1
		c-0.4,0-0.7-0.5-0.7-0.9c0-0.3,0.2-0.9,0.4-1.5L56.2,119.4z"/>
	<path d="M62.6,119.4c0.1-0.2,0.1-0.3,0-0.3c-0.1,0-0.5,0.2-1.3,0.8c-0.1,0-0.2-0.1-0.2-0.3c0.9-1,2.1-1.6,2.6-1.6
		c0.1,0,0.2,0.1,0.3,0.2c0.1,0.1,0.1,0.2-0.1,0.7l-1.9,4.5c-0.1,0.2-0.1,0.3,0,0.3c0.3,0,1.1-0.6,1.6-1.2c0.2,0,0.2,0.1,0.2,0.3
		c-0.2,0.5-1.9,1.9-2.9,1.9c-0.1,0-0.2,0-0.3-0.1c-0.1-0.1-0.1-0.3-0.1-0.4L62.6,119.4z M64.5,115.4c0,0.5-0.3,1-0.8,1
		c-0.4,0-0.6-0.3-0.6-0.6c0-0.3,0.2-1,0.8-1C64.3,114.8,64.5,115.1,64.5,115.4z"/>
	<path d="M65.7,123.5c-0.1,0.4-0.1,0.5,0.1,0.5c0.3,0,1.1-0.8,1.8-1.6c0.2,0,0.3,0.1,0.3,0.2c-0.4,0.8-1.4,2.1-2.7,2.1
		c-0.5,0-0.6-0.2-0.6-0.5c0-0.3,0.1-0.5,0.3-1.3l2.5-7.4c0.4-1.1,0.2-1.3,0-1.4L67,114c-0.1-0.1-0.1-0.2,0-0.3
		c0.3-0.1,1.3-0.4,2-0.5l0.1,0.1c-0.2,0.6-0.4,1-0.9,2.7L65.7,123.5z"/>
	<path d="M69.2,123.5c-0.1,0.4-0.1,0.5,0.1,0.5c0.3,0,1.1-0.8,1.8-1.6c0.2,0,0.3,0.1,0.3,0.2c-0.4,0.8-1.4,2.1-2.7,2.1
		c-0.5,0-0.6-0.2-0.6-0.5c0-0.3,0.1-0.5,0.3-1.3l2.5-7.4c0.4-1.1,0.2-1.3,0-1.4l-0.3-0.1c-0.1-0.1-0.1-0.2,0-0.3
		c0.3-0.1,1.3-0.4,2-0.5l0.1,0.1c-0.2,0.6-0.4,1-0.9,2.7L69.2,123.5z"/>
	<path d="M76.6,119c0,1.2-1.6,2-3.8,2.6c-0.1,0.3-0.2,0.8-0.2,1.4c0,0.5,0.3,0.9,0.8,0.9c0.6,0,1-0.3,1.7-0.9c0.1,0,0.2,0.1,0.2,0.3
		c-1,1.2-1.9,1.4-2.5,1.4c-0.9,0-1.3-0.9-1.3-1.7c0-1,0.6-2.9,2.3-4.2c0.8-0.6,1.4-0.8,1.9-0.8C76.3,118.1,76.6,118.6,76.6,119z
		 M74.1,119.3c-0.6,0.7-1,1.4-1.2,1.8c1-0.3,1.5-0.6,2.1-1.2c0.5-0.5,0.6-0.9,0.6-1.1c0-0.2-0.1-0.4-0.4-0.4
		C75.1,118.6,74.7,118.7,74.1,119.3z"/>
	<path d="M79.1,114.9c0,1.1-1.3,1.9-2.3,2.2c-0.1,0-0.1-0.2-0.1-0.3c0.5-0.2,1.4-0.8,1.4-1.6c0-0.3-0.2-0.5-0.5-0.6
		c-0.1,0-0.2-0.2-0.2-0.3c0-0.3,0.3-0.6,0.7-0.6C78.7,113.7,79.1,114.3,79.1,114.9z"/>
	<path d="M80.9,119c0,0.3-0.2,0.4-0.3,0.5c-0.1,0-0.2,0-0.3-0.1c-0.3-0.3-0.5-0.5-1-0.5c-0.5,0-0.6,0.4-0.6,0.6
		c0,0.3,0.1,0.7,0.5,1.4c0.4,0.7,0.6,1.1,0.6,1.7c0,0.4-0.2,1-0.8,1.5c-0.4,0.4-1,0.6-1.6,0.6c-0.6,0-1-0.5-1-0.8
		c0-0.2,0.1-0.3,0.2-0.5c0.1-0.1,0.3-0.1,0.4,0c0.2,0.2,0.7,0.6,1.1,0.6c0.4,0,0.8-0.4,0.8-0.9c0-0.3-0.2-0.8-0.6-1.4
		c-0.4-0.7-0.6-1.2-0.6-1.5c0-0.6,0.3-1.1,0.9-1.7c0.5-0.4,1-0.5,1.2-0.5C80.5,118.1,80.9,118.6,80.9,119z"/>
	<path d="M87.8,118.3c0.1,0,0.3,0,0.6,0c0.7,0,2.1,0.3,2.1,1.8c0,1.4-0.9,2.7-2.1,3.7c-1,0.8-2.2,0.9-2.3,0.9c-0.1,0-0.3,0-0.5-0.1
		c-0.1,0-0.2,0.1-0.3,0.3l-0.6,1.9c-0.4,1.2-0.4,1.4,0.1,1.4l0.6,0.1c0.1,0.1,0.1,0.3-0.1,0.3c-1.2,0-2.4,0.1-3.4,0.1
		c-0.1-0.1-0.1-0.3,0-0.3l0.3-0.1c0.9-0.2,0.9-0.5,1.2-1.2l2.9-8.2c-0.6,0.2-0.9,0.3-1.6,0.6c-0.1,0-0.2-0.2-0.2-0.3
		c0.6-0.4,1.2-0.7,2-0.9l0.5-1.3c0.2-0.2,0.8,0,0.9,0.2L87.8,118.3z M86,123.4c-0.1,0.2,0,0.3,0,0.4c0.1,0.2,0.3,0.4,0.6,0.4
		c0.2,0,1.1-0.2,1.8-1.3c0.8-1.2,0.9-2.3,0.9-3c0-0.8-0.6-1.2-1.2-1.2c-0.2,0-0.3,0-0.4,0L86,123.4z"/>
	<path d="M93.7,119.6l-0.7,2h0.1c0.5-0.9,1.2-2.1,1.7-2.7c0.4-0.5,0.8-0.8,1.1-0.8c0.6,0,0.6,0.5,0.6,0.8s-0.1,0.7-0.3,0.9
		c-0.2,0.2-0.4,0.3-0.5-0.1c-0.1-0.4-0.2-0.6-0.3-0.6c-0.1,0-0.3,0.2-0.6,0.5c-1,1.2-1.8,3.1-2.7,5c-0.1,0.1-0.1,0.2-0.3,0.2
		c-0.2,0-0.6-0.1-0.5-0.4c0.2-0.6,1.2-3.4,1.6-5c0-0.2,0-0.3-0.1-0.3c-0.4,0-0.8,0.4-1.1,0.8c-0.2,0-0.3-0.1-0.3-0.3
		c0.5-0.8,1.1-1.5,1.9-1.5C94.1,118.1,93.8,119.1,93.7,119.6z"/>
	<path d="M100.9,119c0,1.2-1.6,2-3.8,2.6c-0.1,0.3-0.2,0.8-0.2,1.4c0,0.5,0.3,0.9,0.8,0.9c0.6,0,1-0.3,1.7-0.9
		c0.1,0,0.2,0.1,0.2,0.3c-1,1.2-1.9,1.4-2.5,1.4c-0.9,0-1.3-0.9-1.3-1.7c0-1,0.6-2.9,2.3-4.2c0.8-0.6,1.4-0.8,1.9-0.8
		C100.5,118.1,100.9,118.6,100.9,119z M98.4,119.3c-0.6,0.7-1,1.4-1.2,1.8c1-0.3,1.5-0.6,2.1-1.2c0.5-0.5,0.6-0.9,0.6-1.1
		c0-0.2-0.1-0.4-0.4-0.4C99.4,118.6,99,118.7,98.4,119.3z"/>
	<path d="M107.1,120.1l-0.6,1.4l0,0c1.5-2.4,2.7-3.5,3.7-3.5c0.6,0,0.9,0.3,0.9,0.9c0,0.3-0.1,0.7-0.3,1.1c-0.3,0.8-1.4,3.4-1.5,3.5
		c-0.1,0.2-0.1,0.3,0,0.3c0.3,0,1-0.5,1.5-1.1c0.2,0,0.3,0.1,0.3,0.2c-0.6,1-1.8,1.8-2.7,1.8c-0.1,0-0.4-0.2-0.4-0.4
		c0-0.1,0-0.3,0.4-1c0.3-0.8,1-2.3,1.3-3.1c0.1-0.3,0.3-0.8,0.3-1.1c0-0.2,0-0.4-0.3-0.4c-0.5,0-1.2,0.8-2.1,1.9
		c-0.8,1-1.5,2.3-2.5,4c-0.1,0.1-0.1,0.2-0.3,0.2c-0.2,0-0.6,0-0.5-0.4l1.6-4.1c0.1-0.2,0.7-1.5,0.1-1.5c-0.4,0-1.3,0.8-2.2,1.9
		c-0.8,1-1.4,2.3-2.4,4c-0.1,0.1-0.1,0.2-0.3,0.2c-0.2,0-0.6,0-0.5-0.4c0-0.1,1.7-4.7,1.8-5c0.1-0.3,0.1-0.4-0.1-0.4
		c-0.5,0-1.1,0.5-1.4,0.9c-0.2,0-0.2-0.1-0.2-0.2c0.4-0.8,1.2-1.5,2.4-1.5c0.4,0,0.5,0.3,0.4,0.6l-1.1,2.8l0,0
		c1.1-1.9,2.6-3.5,3.8-3.5C107.8,118.1,107.4,119.3,107.1,120.1z"/>
	<path d="M113.9,119.4c0.1-0.2,0.1-0.3,0-0.3c-0.1,0-0.5,0.2-1.3,0.8c-0.1,0-0.2-0.1-0.2-0.3c0.9-1,2.1-1.6,2.6-1.6
		c0.1,0,0.2,0.1,0.3,0.2c0.1,0.1,0.1,0.2-0.1,0.7l-1.9,4.5c-0.1,0.2-0.1,0.3,0,0.3c0.3,0,1.1-0.6,1.6-1.2c0.2,0,0.2,0.1,0.2,0.3
		c-0.2,0.5-1.9,1.9-2.9,1.9c-0.1,0-0.2,0-0.3-0.1c-0.1-0.1-0.1-0.3-0.1-0.4L113.9,119.4z M115.8,115.4c0,0.5-0.3,1-0.8,1
		c-0.4,0-0.6-0.3-0.6-0.6c0-0.3,0.2-1,0.8-1C115.6,114.8,115.8,115.1,115.8,115.4z"/>
	<path d="M121,119c0,1.2-1.6,2-3.8,2.6c-0.1,0.3-0.2,0.8-0.2,1.4c0,0.5,0.3,0.9,0.8,0.9c0.6,0,1-0.3,1.7-0.9c0.1,0,0.2,0.1,0.2,0.3
		c-1,1.2-1.9,1.4-2.5,1.4c-0.9,0-1.3-0.9-1.3-1.7c0-1,0.6-2.9,2.3-4.2c0.8-0.6,1.4-0.8,1.9-0.8C120.6,118.1,121,118.6,121,119z
		 M118.5,119.3c-0.6,0.7-1,1.4-1.2,1.8c1-0.3,1.5-0.6,2.1-1.2c0.5-0.5,0.6-0.9,0.6-1.1c0-0.2-0.1-0.4-0.4-0.4
		C119.5,118.6,119.1,118.7,118.5,119.3z"/>
	<path d="M123.5,119.6l-0.7,2h0.1c0.5-0.9,1.2-2.1,1.7-2.7c0.4-0.5,0.8-0.8,1.1-0.8c0.6,0,0.6,0.5,0.6,0.8s-0.1,0.7-0.3,0.9
		c-0.2,0.2-0.4,0.3-0.5-0.1c-0.1-0.4-0.2-0.6-0.3-0.6c-0.1,0-0.3,0.2-0.6,0.5c-1,1.2-1.8,3.1-2.7,5c-0.1,0.1-0.1,0.2-0.3,0.2
		c-0.2,0-0.6-0.1-0.5-0.4c0.2-0.6,1.2-3.4,1.6-5c0-0.2,0-0.3-0.1-0.3c-0.4,0-0.8,0.4-1.1,0.8c-0.2,0-0.3-0.1-0.3-0.3
		c0.5-0.8,1.1-1.5,1.9-1.5C123.9,118.1,123.6,119.1,123.5,119.6z"/>
	<path d="M134.6,119c0,0.6-0.6,0.7-0.8,0.7c-0.2,0-0.3-0.1-0.3-0.3c0-0.4,0-0.9-0.6-0.9c-0.3,0-0.8,0.3-1.3,1.1
		c-0.5,0.8-1,2-1.1,3.3c0,0.8,0.3,1,0.7,1c0.5,0,1.1-0.4,1.7-1c0.2,0,0.3,0.1,0.2,0.3c-0.6,0.8-1.6,1.5-2.6,1.5
		c-0.6,0-1.2-0.5-1.2-1.7c0-1,0.6-2.8,2-4.1c0.7-0.6,1.3-0.9,2-0.9C134.2,118.1,134.6,118.5,134.6,119z"/>
	<path d="M139.8,120.1c0,0.9-0.5,2.4-1.7,3.6c-1,1-1.8,1.1-2.3,1.1c-1,0-1.7-0.7-1.6-2.1c0.1-1,0.6-2.5,1.7-3.5c0.8-0.8,1.5-1,2.2-1
		C139.3,118.1,139.9,118.9,139.8,120.1z M136.9,119.3c-0.9,1.2-1.5,3.1-1.6,3.9c0,0.6,0.2,1,0.6,1c0.3,0,0.7-0.1,1.2-0.8
		c0.7-0.9,1.4-3,1.5-3.8c0-0.5-0.1-1-0.6-1C137.8,118.5,137.4,118.7,136.9,119.3z"/>
	<path d="M146.6,120.1l-0.6,1.4l0,0c1.5-2.4,2.7-3.5,3.7-3.5c0.6,0,0.9,0.3,0.9,0.9c0,0.3-0.1,0.7-0.3,1.1c-0.3,0.8-1.4,3.4-1.5,3.5
		c-0.1,0.2-0.1,0.3,0,0.3c0.3,0,1-0.5,1.5-1.1c0.2,0,0.3,0.1,0.3,0.2c-0.6,1-1.8,1.8-2.7,1.8c-0.1,0-0.4-0.2-0.4-0.4
		c0-0.1,0-0.3,0.4-1c0.3-0.8,1-2.3,1.3-3.1c0.1-0.3,0.3-0.8,0.3-1.1c0-0.2,0-0.4-0.3-0.4c-0.5,0-1.2,0.8-2.1,1.9
		c-0.8,1-1.5,2.3-2.5,4c-0.1,0.1-0.1,0.2-0.3,0.2c-0.2,0-0.6,0-0.5-0.4l1.6-4.1c0.1-0.2,0.7-1.5,0.1-1.5c-0.4,0-1.3,0.8-2.2,1.9
		c-0.8,1-1.4,2.3-2.4,4c-0.1,0.1-0.1,0.2-0.3,0.2c-0.2,0-0.6,0-0.5-0.4c0-0.1,1.7-4.7,1.8-5c0.1-0.3,0.1-0.4-0.1-0.4
		c-0.5,0-1.1,0.5-1.4,0.9c-0.2,0-0.2-0.1-0.2-0.2c0.4-0.8,1.2-1.5,2.4-1.5c0.4,0,0.5,0.3,0.4,0.6l-1.1,2.8l0,0
		c1.1-1.9,2.6-3.5,3.8-3.5C147.3,118.1,147,119.3,146.6,120.1z"/>
	<path d="M154.7,118.3c0.1,0,0.3,0,0.6,0c0.7,0,2.1,0.3,2.1,1.8c0,1.4-0.9,2.7-2.1,3.7c-1,0.8-2.2,0.9-2.3,0.9c-0.1,0-0.3,0-0.5-0.1
		c-0.1,0-0.2,0.1-0.3,0.3l-0.6,1.9c-0.4,1.2-0.4,1.4,0.1,1.4l0.6,0.1c0.1,0.1,0.1,0.3-0.1,0.3c-1.2,0-2.4,0.1-3.4,0.1
		c-0.1-0.1-0.1-0.3,0-0.3l0.3-0.1c0.9-0.2,0.9-0.5,1.2-1.2l2.9-8.2c-0.6,0.2-0.9,0.3-1.6,0.6c-0.1,0-0.2-0.2-0.2-0.3
		c0.6-0.4,1.2-0.7,1.9-0.9l0.5-1.3c0.2-0.2,0.8,0,0.9,0.2L154.7,118.3z M153,123.4c-0.1,0.2,0,0.3,0,0.4c0.1,0.2,0.3,0.4,0.6,0.4
		c0.2,0,1.1-0.2,1.8-1.3c0.8-1.2,0.9-2.3,0.9-3c0-0.8-0.6-1.2-1.2-1.2c-0.2,0-0.3,0-0.4,0L153,123.4z"/>
	<path d="M160.6,119.6l-0.7,2h0.1c0.5-0.9,1.2-2.1,1.7-2.7c0.4-0.5,0.8-0.8,1.1-0.8c0.6,0,0.6,0.5,0.6,0.8s-0.1,0.7-0.3,0.9
		c-0.2,0.2-0.4,0.3-0.5-0.1c-0.1-0.4-0.2-0.6-0.3-0.6c-0.1,0-0.3,0.2-0.6,0.5c-1,1.2-1.8,3.1-2.7,5c-0.1,0.1-0.1,0.2-0.3,0.2
		c-0.2,0-0.6-0.1-0.5-0.4c0.2-0.6,1.2-3.4,1.6-5c0-0.2,0-0.3-0.1-0.3c-0.4,0-0.8,0.4-1.1,0.8c-0.2,0-0.3-0.1-0.3-0.3
		c0.5-0.8,1.1-1.5,1.9-1.5C161.1,118.1,160.8,119.1,160.6,119.6z"/>
	<path d="M167.9,119c0,1.2-1.6,2-3.8,2.6c-0.1,0.3-0.2,0.8-0.2,1.4c0,0.5,0.3,0.9,0.8,0.9c0.6,0,1-0.3,1.7-0.9
		c0.1,0,0.2,0.1,0.2,0.3c-1,1.2-1.9,1.4-2.5,1.4c-0.9,0-1.3-0.9-1.3-1.7c0-1,0.6-2.9,2.3-4.2c0.8-0.6,1.4-0.8,1.9-0.8
		C167.5,118.1,167.9,118.6,167.9,119z M165.4,119.3c-0.6,0.7-1,1.4-1.2,1.8c1-0.3,1.5-0.6,2.1-1.2c0.5-0.5,0.6-0.9,0.6-1.1
		c0-0.2-0.1-0.4-0.4-0.4C166.3,118.6,165.9,118.7,165.4,119.3z"/>
	<path d="M172.3,113.3c-0.3,0.9-0.8,2.3-1.1,3.2l-1.6,4.7l0,0c1.1-1.6,1.9-2.2,2.5-2.6c0.6-0.4,1.1-0.6,1.5-0.6
		c0.7,0,0.9,0.5,0.9,1.1c0,1.1-0.7,2.7-1.2,3.7c-0.3,0.5-0.6,0.9-1,1.3c-0.5,0.5-0.9,0.6-1.1,0.6c-0.5,0-0.6-0.3-0.6-0.5
		c0-0.3,0.2-0.5,0.4-0.5c0.1,0,0.1,0,0.2,0.1c0.1,0.1,0.3,0.2,0.4,0.2c0.2,0,0.4-0.2,0.6-0.8c0.4-1,1.1-3.2,1.1-4.1
		c0-0.3-0.1-0.5-0.3-0.5c-0.2,0-0.6,0.2-0.8,0.4c-0.7,0.5-1.2,1-2,2.1c-0.7,0.9-1.5,2.5-1.9,3.3c-0.1,0.1-0.1,0.2-0.3,0.2
		c-0.2,0-0.6,0-0.5-0.4l3-8.8c0.3-1,0.4-1.3,0.2-1.4l-0.3-0.2c0-0.1,0-0.1,0-0.2C170.6,113.5,171.7,113.3,172.3,113.3L172.3,113.3z"
		/>
	<path d="M180,119c0,1.2-1.6,2-3.8,2.6c-0.1,0.3-0.2,0.8-0.2,1.4c0,0.5,0.3,0.9,0.8,0.9c0.6,0,1-0.3,1.7-0.9c0.1,0,0.2,0.1,0.2,0.3
		c-1,1.2-1.9,1.4-2.5,1.4c-0.9,0-1.3-0.9-1.3-1.7c0-1,0.6-2.9,2.3-4.2c0.8-0.6,1.4-0.8,1.9-0.8C179.6,118.1,180,118.6,180,119z
		 M177.5,119.3c-0.6,0.7-1,1.4-1.2,1.8c1-0.3,1.5-0.6,2.1-1.2c0.5-0.5,0.6-0.9,0.6-1.1c0-0.2-0.1-0.4-0.4-0.4
		C178.5,118.6,178.1,118.7,177.5,119.3z"/>
	<path d="M181.9,121.5L181.9,121.5c1.2-1.7,2.7-3.4,3.9-3.4c0.6,0,0.9,0.3,0.9,0.9c0,0.3-0.1,0.7-0.3,1.1c-0.3,0.8-1.4,3.4-1.5,3.5
		c-0.1,0.2-0.1,0.3,0,0.3c0.3,0,1-0.5,1.5-1.1c0.2,0,0.3,0.1,0.3,0.2c-0.6,1-1.8,1.8-2.7,1.8c-0.1,0-0.4-0.2-0.4-0.4
		c0-0.1,0-0.3,0.4-1c0.3-0.8,0.9-2.3,1.3-3.1c0.1-0.3,0.3-0.8,0.3-1.1c0-0.2,0-0.4-0.3-0.4c-0.4,0-1.3,0.8-2.2,1.9
		c-0.8,1-1.5,2.3-2.4,4c-0.1,0.1-0.1,0.2-0.3,0.2c-0.2,0-0.6,0-0.5-0.4c0.1-0.2,1.7-4.7,1.8-5c0.1-0.2,0.1-0.4,0-0.4
		c-0.4,0-0.9,0.3-1.4,0.8c-0.1,0-0.2-0.1-0.2-0.2c0.6-0.8,1.6-1.5,2.3-1.5c0.4,0,0.6,0.3,0.4,0.6L181.9,121.5z"/>
	<path d="M191.1,119c0,0.3-0.2,0.4-0.3,0.5c-0.1,0-0.2,0-0.3-0.1c-0.3-0.3-0.5-0.5-1-0.5c-0.5,0-0.6,0.4-0.6,0.6
		c0,0.3,0.1,0.7,0.5,1.4c0.4,0.7,0.6,1.1,0.6,1.7c0,0.4-0.2,1-0.8,1.5c-0.4,0.4-1,0.6-1.6,0.6c-0.6,0-1-0.5-1-0.8
		c0-0.2,0.1-0.3,0.2-0.5c0.1-0.1,0.3-0.1,0.4,0c0.2,0.2,0.7,0.6,1.1,0.6c0.4,0,0.8-0.4,0.8-0.9c0-0.3-0.2-0.8-0.6-1.4
		c-0.4-0.7-0.6-1.2-0.6-1.5c0-0.6,0.3-1.1,0.9-1.7c0.5-0.4,1-0.5,1.2-0.5C190.7,118.1,191.1,118.6,191.1,119z"/>
	<path d="M193.2,119.4c0.1-0.2,0.1-0.3,0-0.3c-0.1,0-0.5,0.2-1.3,0.8c-0.1,0-0.2-0.1-0.2-0.3c0.9-1,2.1-1.6,2.6-1.6
		c0.1,0,0.2,0.1,0.3,0.2c0.1,0.1,0.1,0.2-0.1,0.7l-1.9,4.5c-0.1,0.2-0.1,0.3,0,0.3c0.3,0,1.1-0.6,1.6-1.2c0.2,0,0.2,0.1,0.2,0.3
		c-0.2,0.5-1.9,1.9-2.9,1.9c-0.1,0-0.2,0-0.3-0.1c-0.1-0.1-0.1-0.3-0.1-0.4L193.2,119.4z M195,115.4c0,0.5-0.3,1-0.8,1
		c-0.4,0-0.6-0.3-0.6-0.6c0-0.3,0.2-1,0.8-1C194.9,114.8,195,115.1,195,115.4z"/>
	<path d="M197.1,119.4c0.1-0.3,0.1-0.5-0.1-0.5c-0.3,0-1,0.6-1.5,1.1c-0.1,0-0.3-0.1-0.2-0.3c0.5-0.7,1.6-1.7,2.5-1.7
		c0.4,0,0.7,0.5,0.5,1l-1.4,3.5c-0.1,0.2-0.2,0.5-0.2,0.7c0,0.3,0.1,0.6,0.5,0.6c0.4,0,1-0.4,1.7-1.2c0.9-1,1.4-2.3,1.4-3
		c0-0.4,0-0.8-0.1-1.1c0-0.3,0.3-0.6,0.6-0.6c0.5,0,0.6,0.6,0.6,1c0,1.1-1.2,3.4-2.5,4.5c-1.2,1-2.1,1.1-2.5,1.1
		c-0.4,0-0.7-0.5-0.7-0.9c0-0.3,0.2-0.9,0.4-1.5L197.1,119.4z"/>
	<path d="M206.5,119c0,1.2-1.6,2-3.8,2.6c-0.1,0.3-0.2,0.8-0.2,1.4c0,0.5,0.3,0.9,0.8,0.9c0.6,0,1-0.3,1.7-0.9
		c0.1,0,0.2,0.1,0.2,0.3c-1,1.2-1.9,1.4-2.5,1.4c-0.9,0-1.3-0.9-1.3-1.7c0-1,0.6-2.9,2.3-4.2c0.8-0.6,1.4-0.8,1.9-0.8
		C206.1,118.1,206.5,118.6,206.5,119z M204,119.3c-0.6,0.7-1,1.4-1.2,1.8c1-0.3,1.5-0.6,2.1-1.2c0.5-0.5,0.6-0.9,0.6-1.1
		c0-0.2-0.1-0.4-0.4-0.4C204.9,118.6,204.5,118.7,204,119.3z"/>
	<path d="M213.6,119c0,0.3-0.2,0.4-0.3,0.5c-0.1,0-0.2,0-0.3-0.1c-0.3-0.3-0.5-0.5-1-0.5c-0.5,0-0.6,0.4-0.6,0.6
		c0,0.3,0.1,0.7,0.5,1.4c0.4,0.7,0.6,1.1,0.6,1.7c0,0.4-0.2,1-0.8,1.5c-0.4,0.4-1,0.6-1.6,0.6c-0.6,0-1-0.5-1-0.8
		c0-0.2,0.1-0.3,0.2-0.5c0.1-0.1,0.3-0.1,0.4,0c0.2,0.2,0.7,0.6,1.1,0.6c0.4,0,0.8-0.4,0.8-0.9c0-0.3-0.2-0.8-0.6-1.4
		c-0.4-0.7-0.6-1.2-0.6-1.5c0-0.6,0.3-1.1,0.9-1.7c0.5-0.4,1-0.5,1.2-0.5C213.3,118.1,213.6,118.6,213.6,119z"/>
	<path d="M219.9,120.1l-0.6,1.4l0,0c1.5-2.4,2.7-3.5,3.7-3.5c0.6,0,0.9,0.3,0.9,0.9c0,0.3-0.1,0.7-0.3,1.1c-0.3,0.8-1.4,3.4-1.5,3.5
		c-0.1,0.2-0.1,0.3,0,0.3c0.3,0,1-0.5,1.5-1.1c0.2,0,0.3,0.1,0.3,0.2c-0.6,1-1.8,1.8-2.7,1.8c-0.1,0-0.4-0.2-0.4-0.4
		c0-0.1,0-0.3,0.4-1c0.3-0.8,1-2.3,1.3-3.1c0.1-0.3,0.3-0.8,0.3-1.1c0-0.2,0-0.4-0.3-0.4c-0.5,0-1.2,0.8-2.1,1.9
		c-0.8,1-1.5,2.3-2.5,4c-0.1,0.1-0.1,0.2-0.3,0.2c-0.2,0-0.6,0-0.5-0.4l1.6-4.1c0.1-0.2,0.7-1.5,0.1-1.5c-0.4,0-1.3,0.8-2.2,1.9
		c-0.8,1-1.4,2.3-2.4,4c-0.1,0.1-0.1,0.2-0.3,0.2c-0.2,0-0.6,0-0.5-0.4c0-0.1,1.7-4.7,1.8-5c0.1-0.3,0.1-0.4-0.1-0.4
		c-0.5,0-1.1,0.5-1.4,0.9c-0.2,0-0.2-0.1-0.2-0.2c0.4-0.8,1.2-1.5,2.4-1.5c0.4,0,0.5,0.3,0.4,0.6l-1.1,2.8l0,0
		c1.1-1.9,2.6-3.5,3.8-3.5C220.6,118.1,220.3,119.3,219.9,120.1z"/>
	<path d="M226.8,119.4c0.1-0.2,0.1-0.3,0-0.3c-0.1,0-0.5,0.2-1.3,0.8c-0.1,0-0.2-0.1-0.2-0.3c0.9-1,2.1-1.6,2.6-1.6
		c0.1,0,0.2,0.1,0.3,0.2c0.1,0.1,0.1,0.2-0.1,0.7l-1.9,4.5c-0.1,0.2-0.1,0.3,0,0.3c0.3,0,1.1-0.6,1.6-1.2c0.2,0,0.2,0.1,0.2,0.3
		c-0.2,0.5-1.9,1.9-2.9,1.9c-0.1,0-0.2,0-0.3-0.1c-0.1-0.1-0.1-0.3-0.1-0.4L226.8,119.4z M228.6,115.4c0,0.5-0.3,1-0.8,1
		c-0.4,0-0.6-0.3-0.6-0.6c0-0.3,0.2-1,0.8-1C228.5,114.8,228.6,115.1,228.6,115.4z"/>
	<path d="M229.9,123.5c-0.1,0.4-0.1,0.5,0.1,0.5c0.3,0,1.1-0.8,1.8-1.6c0.2,0,0.3,0.1,0.3,0.2c-0.4,0.8-1.4,2.1-2.7,2.1
		c-0.5,0-0.6-0.2-0.6-0.5c0-0.3,0.1-0.5,0.3-1.3l2.5-7.4c0.4-1.1,0.2-1.3,0-1.4l-0.3-0.1c-0.1-0.1-0.1-0.2,0-0.3
		c0.3-0.1,1.3-0.4,2-0.5l0.1,0.1c-0.2,0.6-0.4,1-0.9,2.7L229.9,123.5z"/>
	<path d="M237.3,119c0,1.2-1.6,2-3.8,2.6c-0.1,0.3-0.2,0.8-0.2,1.4c0,0.5,0.3,0.9,0.8,0.9c0.6,0,1-0.3,1.7-0.9
		c0.1,0,0.2,0.1,0.2,0.3c-1,1.2-1.9,1.4-2.5,1.4c-0.9,0-1.3-0.9-1.3-1.7c0-1,0.6-2.9,2.3-4.2c0.8-0.6,1.4-0.8,1.9-0.8
		C236.9,118.1,237.3,118.6,237.3,119z M234.8,119.3c-0.6,0.7-1,1.4-1.2,1.8c1-0.3,1.5-0.6,2.1-1.2c0.5-0.5,0.6-0.9,0.6-1.1
		c0-0.2-0.1-0.4-0.4-0.4C235.8,118.6,235.4,118.7,234.8,119.3z"/>
	<path d="M245.9,119c0,0.6-0.6,0.7-0.8,0.7c-0.2,0-0.3-0.1-0.3-0.3c0-0.4,0-0.9-0.6-0.9c-0.3,0-0.8,0.3-1.3,1.1
		c-0.5,0.8-1,2-1.1,3.3c0,0.8,0.3,1,0.7,1c0.5,0,1.1-0.4,1.7-1c0.2,0,0.3,0.1,0.2,0.3c-0.6,0.8-1.6,1.5-2.6,1.5
		c-0.6,0-1.2-0.5-1.2-1.7c0-1,0.6-2.8,2-4.1c0.7-0.6,1.3-0.9,2-0.9C245.5,118.1,245.9,118.5,245.9,119z"/>
	<path d="M250.8,119c0,1.2-1.6,2-3.8,2.6c-0.1,0.3-0.2,0.8-0.2,1.4c0,0.5,0.3,0.9,0.8,0.9c0.6,0,1-0.3,1.7-0.9
		c0.1,0,0.2,0.1,0.2,0.3c-1,1.2-1.9,1.4-2.5,1.4c-0.9,0-1.3-0.9-1.3-1.7c0-1,0.6-2.9,2.3-4.2c0.8-0.6,1.4-0.8,1.9-0.8
		C250.5,118.1,250.8,118.6,250.8,119z M248.3,119.3c-0.6,0.7-1,1.4-1.2,1.8c1-0.3,1.5-0.6,2.1-1.2c0.5-0.5,0.6-0.9,0.6-1.1
		c0-0.2-0.1-0.4-0.4-0.4C249.3,118.6,248.9,118.7,248.3,119.3z"/>
	<path d="M252.7,121.5L252.7,121.5c1.2-1.7,2.7-3.4,3.9-3.4c0.6,0,0.9,0.3,0.9,0.9c0,0.3-0.1,0.7-0.3,1.1c-0.3,0.8-1.4,3.4-1.5,3.5
		c-0.1,0.2-0.1,0.3,0,0.3c0.3,0,1-0.5,1.5-1.1c0.2,0,0.3,0.1,0.3,0.2c-0.6,1-1.8,1.8-2.7,1.8c-0.1,0-0.4-0.2-0.4-0.4
		c0-0.1,0-0.3,0.4-1c0.3-0.8,0.9-2.3,1.3-3.1c0.1-0.3,0.3-0.8,0.3-1.1c0-0.2,0-0.4-0.3-0.4c-0.4,0-1.3,0.8-2.2,1.9
		c-0.8,1-1.5,2.3-2.4,4c-0.1,0.1-0.1,0.2-0.3,0.2c-0.2,0-0.6,0-0.5-0.4c0.1-0.2,1.7-4.7,1.8-5c0.1-0.2,0.1-0.4,0-0.4
		c-0.4,0-0.9,0.3-1.4,0.8c-0.1,0-0.2-0.1-0.2-0.2c0.6-0.8,1.6-1.5,2.3-1.5c0.4,0,0.6,0.3,0.4,0.6L252.7,121.5z"/>
	<path d="M261,119.1l-1.4,4.1c-0.1,0.3,0,0.4,0.1,0.4c0.2,0,1.3-0.8,1.8-1.4c0.2,0,0.3,0.1,0.2,0.3c-0.9,1.3-2.4,2.3-3,2.3
		c-0.2,0-0.4-0.2-0.4-0.4c0-0.2,0.1-0.4,0.2-0.9l1.5-4.3h-1.2c0-0.2,0-0.4,0.2-0.4l1.3-0.2l0.9-1.6c0.2-0.1,0.5-0.1,0.6,0.1
		l-0.5,1.5h1.7c0.1,0.2,0,0.5-0.2,0.6H261z"/>
	<path d="M267.4,119c0,1.2-1.6,2-3.8,2.6c-0.1,0.3-0.2,0.8-0.2,1.4c0,0.5,0.3,0.9,0.8,0.9c0.6,0,1-0.3,1.7-0.9
		c0.1,0,0.2,0.1,0.2,0.3c-1,1.2-1.9,1.4-2.5,1.4c-0.9,0-1.3-0.9-1.3-1.7c0-1,0.6-2.9,2.3-4.2c0.8-0.6,1.4-0.8,1.9-0.8
		C267.1,118.1,267.4,118.6,267.4,119z M264.9,119.3c-0.6,0.7-1,1.4-1.2,1.8c1-0.3,1.5-0.6,2.1-1.2c0.5-0.5,0.6-0.9,0.6-1.1
		c0-0.2-0.1-0.4-0.4-0.4C265.9,118.6,265.5,118.7,264.9,119.3z"/>
	<path d="M269.9,119.6l-0.7,2h0.1c0.5-0.9,1.2-2.1,1.7-2.7c0.4-0.5,0.8-0.8,1.1-0.8c0.6,0,0.6,0.5,0.6,0.8s-0.1,0.7-0.3,0.9
		c-0.2,0.2-0.4,0.3-0.5-0.1c-0.1-0.4-0.2-0.6-0.3-0.6c-0.1,0-0.3,0.2-0.6,0.5c-1,1.2-1.8,3.1-2.7,5c-0.1,0.1-0.1,0.2-0.3,0.2
		c-0.2,0-0.6-0.1-0.5-0.4c0.2-0.6,1.2-3.4,1.6-5c0-0.2,0-0.3-0.1-0.3c-0.4,0-0.8,0.4-1.1,0.8c-0.2,0-0.3-0.1-0.3-0.3
		c0.5-0.8,1.1-1.5,1.9-1.5C270.3,118.1,270.1,119.1,269.9,119.6z"/>
</g>
<line class="st5" x1="10.2" y1="83.5" x2="289.8" y2="83.5"/>
<g>
	<path class="st3" d="M16.3,68.7c0-3.8,0-4.5,0-5.3c0-0.8-0.2-1.2-1-1.4C15,62,14.6,62,14.4,62c-0.1,0-0.2,0-0.2-0.1
		c0-0.1,0.1-0.2,0.4-0.2c1.1,0,2.6,0.1,2.8,0.1c0.3,0,1.8-0.1,3.3-0.1c2.4,0,6.9-0.2,9.8,2.8c1.2,1.3,2.4,3.3,2.4,6.2
		c0,3.1-1.3,5.4-2.6,6.9c-1,1.1-3.2,2.8-7.4,2.8c-1,0-2.3-0.1-3.4-0.1c-1.1-0.1-1.9-0.1-2-0.1c0,0-0.5,0-1,0c-0.5,0-1,0-1.4,0
		c-0.3,0-0.4,0-0.4-0.2c0-0.1,0-0.1,0.2-0.1c0.2,0,0.5,0,0.7-0.1c0.5-0.1,0.6-0.6,0.7-1.3c0.1-1,0.1-3,0.1-5.3V68.7z M18.3,71.4
		c0,2.6,0,4.8,0,5.3c0,0.6,0.1,1.6,0.3,1.9c0.3,0.5,1.3,1,4.1,1c2.3,0,4.4-0.8,5.8-2.3c1.3-1.2,2-3.6,2-5.8c0-3.1-1.3-5.1-2.3-6.1
		c-2.3-2.4-5.1-2.8-8-2.8c-0.5,0-1.4,0.1-1.6,0.2c-0.2,0.1-0.3,0.2-0.3,0.5c0,0.8,0,3.3,0,5.2V71.4z"/>
	<path class="st3" d="M42.3,64.1c4.8,0,8.5,3,8.5,7.8c0,4.6-3.4,8.5-8.6,8.5c-5.9,0-8.4-4.4-8.4-8.1C33.8,68.9,36.4,64.1,42.3,64.1z
		 M42.8,79.5c1.9,0,5.8-1,5.8-7c0-5-3-7.6-6.4-7.6c-3.6,0-6.2,2.2-6.2,6.8C36,76.5,38.9,79.5,42.8,79.5z"/>
	<path class="st3" d="M54.4,77.3c0,1.7,0.2,2.2,0.8,2.4c0.4,0.1,0.9,0.1,1.1,0.1c0.1,0,0.2,0.1,0.2,0.2c0,0.1-0.1,0.2-0.4,0.2
		c-1.2,0-2.1-0.1-2.3-0.1s-1.1,0.1-2.1,0.1c-0.2,0-0.3,0-0.3-0.2c0-0.1,0.1-0.2,0.2-0.2c0.2,0,0.6,0,0.9-0.1C53,79.5,53,78.9,53,77
		V65.2c0-0.8,0.1-1,0.3-1c0.2,0,0.6,0.4,0.8,0.6c0.3,0.3,3.5,3.7,6.8,7.1c2.1,2.2,4.4,4.7,5.1,5.3l-0.2-10.4c0-1.3-0.1-1.8-0.8-1.9
		c-0.4-0.1-0.9-0.1-1-0.1c-0.1,0-0.2-0.1-0.2-0.2c0-0.1,0.2-0.1,0.4-0.1c1,0,2,0,2.2,0c0.2,0,1,0,1.8,0c0.2,0,0.4,0,0.4,0.1
		c0,0.1-0.1,0.2-0.2,0.2c-0.1,0-0.3,0-0.5,0c-0.7,0.1-0.8,0.6-0.8,1.8l0,12.1c0,1.4,0,1.5-0.2,1.5c-0.2,0-0.4-0.2-1.6-1.3
		c-0.2-0.2-3.3-3.2-5.6-5.6c-2.5-2.6-4.9-5.1-5.6-5.9L54.4,77.3z"/>
	<path class="st3" d="M75.2,64.8c0.3-0.7,0.4-0.8,0.5-0.8c0.2,0,0.3,0.3,0.5,0.8c0.4,0.9,3.8,9.4,5.1,12.6c0.8,1.9,1.4,2.1,1.8,2.3
		c0.3,0.1,0.6,0.1,0.9,0.1c0.1,0,0.3,0,0.3,0.2c0,0.1-0.2,0.2-0.5,0.2c-0.3,0-1.9,0-3.4,0c-0.4,0-0.8,0-0.8-0.1c0-0.1,0-0.1,0.1-0.1
		c0.1,0,0.3-0.2,0.2-0.6l-1.9-4.8c0-0.1-0.1-0.1-0.2-0.1h-5c-0.1,0-0.2,0-0.2,0.2l-1.2,3.3c-0.2,0.5-0.3,1-0.3,1.4
		c0,0.4,0.4,0.6,0.7,0.6h0.2c0.2,0,0.2,0.1,0.2,0.2c0,0.1-0.1,0.2-0.3,0.2c-0.5,0-1.7-0.1-1.9-0.1c-0.2,0-1.3,0.1-2.2,0.1
		c-0.3,0-0.4,0-0.4-0.2c0-0.1,0.1-0.2,0.2-0.2c0.1,0,0.5,0,0.6,0c1-0.1,1.4-0.9,1.8-1.9L75.2,64.8z M77.6,73.5c0.1,0,0.1,0,0.1-0.1
		l-2.1-5.7c-0.1-0.3-0.2-0.3-0.4,0l-2,5.7c0,0.1,0,0.1,0.1,0.1H77.6z"/>
	<path class="st3" d="M87.3,74.1c0,3,0,4.3,0.4,4.7c0.3,0.3,1.2,0.5,2.9,0.5c1.1,0,2.1,0,2.6-0.6c0.3-0.3,0.4-0.8,0.5-1.2
		c0-0.1,0.1-0.3,0.2-0.3c0.1,0,0.1,0.1,0.1,0.3s-0.1,1.5-0.3,2.1c-0.1,0.5-0.2,0.6-1.4,0.6c-1.5,0-2.7,0-3.7-0.1c-1,0-1.7,0-2.3,0
		c-0.1,0-0.5,0-0.9,0c-0.4,0-0.9,0-1.2,0c-0.2,0-0.3,0-0.3-0.2c0-0.1,0-0.2,0.2-0.2c0.2,0,0.5,0,0.7-0.1c0.4-0.1,0.5-0.5,0.6-1.1
		c0.1-0.9,0.1-2.5,0.1-4.5v-3.7c0-3.2,0-3.8,0-4.5c0-0.7-0.2-1-0.9-1.1c-0.2,0-0.5,0-0.7,0c-0.1,0-0.2-0.1-0.2-0.2
		c0-0.1,0.1-0.2,0.3-0.2c1,0,2.3,0,2.4,0c0.1,0,1.7,0,2.4,0c0.2,0,0.3,0,0.3,0.2c0,0.1-0.1,0.1-0.2,0.1c-0.1,0-0.5,0-0.7,0
		c-0.6,0.1-0.8,0.4-0.8,1.2c0,0.7,0,1.2,0,4.5V74.1z"/>
	<path class="st3" d="M96.6,70.4c0-3.2,0-3.8,0-4.5c0-0.7-0.2-1-0.9-1.1c-0.2,0-0.5,0-0.7,0c-0.1,0-0.2-0.1-0.2-0.2
		c0-0.1,0.1-0.2,0.3-0.2c1,0,2.4,0,2.5,0c0.2,0,1.6,0,2.9,0c2.1,0,6.1-0.2,8.6,2.4c1.1,1.1,2.1,2.8,2.1,5.3c0,2.6-1.1,4.6-2.3,5.8
		c-0.9,1-2.9,2.4-6.5,2.4c-0.9,0-2.1-0.1-3-0.1c-0.9-0.1-1.7-0.1-1.8-0.1c0,0-0.4,0-0.9,0c-0.4,0-1,0-1.3,0c-0.2,0-0.3,0-0.3-0.2
		c0-0.1,0-0.2,0.2-0.2c0.2,0,0.5,0,0.7-0.1c0.4-0.1,0.5-0.5,0.6-1.1c0.1-0.9,0.1-2.5,0.1-4.5V70.4z M98.5,72.7c0,2.2,0,4.1,0,4.5
		c0,0.5,0.1,1.3,0.2,1.5c0.3,0.4,1,0.8,3.6,0.8c2,0,3.7-0.7,5-1.9c1.1-1,1.7-3,1.7-4.9c0-2.6-1.1-4.3-2-5.2c-2-2-4.4-2.3-7-2.3
		c-0.4,0-1.1,0.1-1.3,0.1c-0.2,0.1-0.3,0.2-0.3,0.4V72.7z"/>
	<path class="st3" d="M132.7,73.9c0-2-0.1-2.2-1.1-2.5c-0.2,0-0.6-0.1-0.8-0.1c-0.1,0-0.2,0-0.2-0.1c0-0.1,0.1-0.2,0.4-0.2
		c1.1,0,2.6,0.1,2.8,0.1c0.1,0,1.7-0.1,2.4-0.1c0.3,0,0.4,0,0.4,0.2c0,0.1-0.1,0.1-0.2,0.1c-0.2,0-0.3,0-0.6,0.1
		c-0.7,0.1-0.9,0.5-0.9,1.4c0,0.8,0,1.5,0,2.5V78c0,1.1,0,1.1-0.3,1.3c-1.6,0.8-3.8,1.1-5.2,1.1c-1.9,0-5.3-0.2-8-2.6
		c-1.5-1.3-2.9-3.9-2.9-7c0-3.9,1.9-6.7,4.1-8c2.2-1.4,4.6-1.5,6.5-1.5c1.5,0,3.3,0.3,3.7,0.4c0.5,0.1,1.4,0.2,2,0.2
		c0.2,0,0.3,0.1,0.3,0.2c0,0.3-0.2,1-0.2,3.5c0,0.4,0,0.5-0.2,0.5c-0.1,0-0.1-0.1-0.2-0.4c0-0.3-0.1-1-0.5-1.6c-0.6-0.9-2.6-2-5.7-2
		c-1.5,0-3.4,0.1-5.2,1.6c-1.4,1.1-2.4,3.3-2.4,6.2c0,3.4,1.7,5.9,2.6,6.8c1.9,1.9,4.1,2.6,6.4,2.6c0.9,0,2.1-0.1,2.8-0.5
		c0.3-0.2,0.5-0.4,0.5-0.9V73.9z"/>
	<path class="st3" d="M137.7,78.7c0-0.6,0.4-1.3,1.3-1.3c0.8,0,1.3,0.5,1.3,1.3c0,0.8-0.5,1.4-1.4,1.4
		C138.1,80,137.7,79.3,137.7,78.7z"/>
	<path class="st3" d="M165.4,73c0,2.3,0,4.3,0.1,5.3c0.1,0.7,0.2,1.2,1,1.3c0.3,0,0.9,0.1,1.1,0.1c0.1,0,0.2,0.1,0.2,0.1
		c0,0.1-0.1,0.2-0.4,0.2c-1.3,0-2.9-0.1-3-0.1c-0.1,0-1.7,0.1-2.4,0.1c-0.3,0-0.4,0-0.4-0.2c0-0.1,0-0.1,0.2-0.1
		c0.2,0,0.5,0,0.7-0.1c0.5-0.1,0.6-0.6,0.7-1.3c0.1-1,0.1-3,0.1-5.3v-2.6c0-0.1-0.1-0.1-0.1-0.1h-10.3c-0.1,0-0.1,0-0.1,0.1V73
		c0,2.3,0,4.3,0.1,5.3c0.1,0.7,0.2,1.2,1,1.3c0.3,0,0.9,0.1,1.1,0.1c0.1,0,0.2,0.1,0.2,0.1c0,0.1-0.1,0.2-0.4,0.2
		c-1.3,0-2.9-0.1-3-0.1c-0.1,0-1.7,0.1-2.4,0.1c-0.3,0-0.4,0-0.4-0.2c0-0.1,0-0.1,0.2-0.1c0.2,0,0.5,0,0.7-0.1
		c0.5-0.1,0.6-0.6,0.7-1.3c0.1-1,0.1-3,0.1-5.3v-4.3c0-3.8,0-4.5,0-5.3c0-0.8-0.2-1.2-1-1.4c-0.2,0-0.6-0.1-0.8-0.1
		c-0.1,0-0.2,0-0.2-0.1c0-0.1,0.1-0.2,0.4-0.2c1.1,0,2.6,0.1,2.8,0.1c0.1,0,1.7-0.1,2.4-0.1c0.3,0,0.4,0,0.4,0.2
		c0,0.1-0.1,0.1-0.2,0.1c-0.2,0-0.3,0-0.6,0.1c-0.7,0.1-0.9,0.5-0.9,1.4c0,0.8,0,1.5,0,5.3v0.5c0,0.1,0.1,0.1,0.1,0.1h10.3
		c0.1,0,0.1,0,0.1-0.1v-0.5c0-3.8,0-4.5,0-5.3c0-0.8-0.2-1.2-1-1.4c-0.2,0-0.6-0.1-0.8-0.1c-0.1,0-0.2,0-0.2-0.1
		c0-0.1,0.1-0.2,0.4-0.2c1.1,0,2.6,0.1,2.8,0.1c0.1,0,1.7-0.1,2.4-0.1c0.3,0,0.4,0,0.4,0.2c0,0.1-0.1,0.1-0.2,0.1
		c-0.2,0-0.3,0-0.6,0.1c-0.7,0.1-0.9,0.5-0.9,1.4c0,0.8,0,1.5,0,5.3V73z"/>
	<path class="st3" d="M177.4,64.1c4.8,0,8.5,3,8.5,7.8c0,4.6-3.4,8.5-8.6,8.5c-5.9,0-8.4-4.4-8.4-8.1
		C168.9,68.9,171.5,64.1,177.4,64.1z M177.9,79.5c1.9,0,5.8-1,5.8-7c0-5-3-7.6-6.4-7.6c-3.6,0-6.2,2.2-6.2,6.8
		C171.1,76.5,174,79.5,177.9,79.5z"/>
	<path class="st3" d="M195.3,64.1c4.8,0,8.5,3,8.5,7.8c0,4.6-3.4,8.5-8.6,8.5c-5.9,0-8.4-4.4-8.4-8.1
		C186.7,68.9,189.3,64.1,195.3,64.1z M195.7,79.5c1.9,0,5.8-1,5.8-7c0-5-3-7.6-6.4-7.6c-3.6,0-6.2,2.2-6.2,6.8
		C189,76.5,191.9,79.5,195.7,79.5z"/>
	<path class="st3" d="M208.4,74.1c0,2,0,3.6,0.1,4.5c0.1,0.6,0.1,1,0.8,1.1c0.3,0,0.8,0.1,1,0.1c0.1,0,0.2,0.1,0.2,0.2
		c0,0.1-0.1,0.2-0.3,0.2c-1.2,0-2.6-0.1-2.7-0.1c-0.1,0-1.5,0.1-2.1,0.1c-0.2,0-0.3,0-0.3-0.2c0-0.1,0-0.2,0.2-0.2
		c0.2,0,0.5,0,0.7-0.1c0.4-0.1,0.5-0.5,0.6-1.1c0.1-0.9,0.1-2.5,0.1-4.5v-3.7c0-3.2,0-3.8,0-4.5c0-0.7-0.2-1-0.7-1.1
		c-0.2,0-0.5-0.1-0.7-0.1c-0.1,0-0.2-0.1-0.2-0.2c0-0.1,0.1-0.2,0.3-0.2c0.7,0,2,0,2.2,0c0.1,0,1.5,0,2.1,0c0.2,0,0.3,0,0.3,0.2
		c0,0.1-0.1,0.2-0.2,0.2c-0.1,0-0.3,0-0.5,0c-0.6,0.1-0.7,0.4-0.8,1.1c0,0.7,0,1.2,0,4.5V74.1z"/>
	<path class="st3" d="M213.6,70.4c0-3.2,0-3.8,0-4.5c0-0.7-0.2-1-0.9-1.1c-0.2,0-0.5,0-0.7,0c-0.1,0-0.2-0.1-0.2-0.2
		c0-0.1,0.1-0.2,0.3-0.2c1,0,2.4,0,2.5,0c0.1,0,4.6,0,5.1,0c0.4,0,0.8-0.1,1-0.1c0.1,0,0.2-0.1,0.3-0.1c0.1,0,0.1,0.1,0.1,0.2
		c0,0.1-0.1,0.4-0.2,1c0,0.2-0.1,1.1-0.1,1.4c0,0.1-0.1,0.2-0.2,0.2c-0.1,0-0.2-0.1-0.2-0.3c0-0.1,0-0.5-0.1-0.7
		c-0.1-0.3-0.4-0.5-1.5-0.6c-0.4,0-2.9-0.1-3.1-0.1c-0.1,0-0.1,0.1-0.1,0.2v5.6c0,0.1,0,0.2,0.1,0.2c0.3,0,3.1,0,3.6,0
		c0.5,0,0.8-0.1,1-0.3c0.1-0.1,0.2-0.3,0.3-0.3c0.1,0,0.1,0,0.1,0.2c0,0.1-0.1,0.5-0.2,1.1c0,0.4-0.1,1.2-0.1,1.3
		c0,0.2,0,0.4-0.2,0.4c-0.1,0-0.1-0.1-0.1-0.2c0-0.2,0-0.4-0.1-0.7c-0.1-0.3-0.3-0.5-1.1-0.6c-0.6-0.1-2.9-0.1-3.2-0.1
		c-0.1,0-0.1,0.1-0.1,0.1v1.7c0,0.7,0,3.1,0,3.5c0,1.4,0.4,1.7,2.6,1.7c0.6,0,1.6,0,2.1-0.2c0.6-0.2,0.9-0.6,1-1.4
		c0-0.2,0.1-0.3,0.2-0.3c0.1,0,0.1,0.2,0.1,0.3c0,0.1-0.2,1.6-0.3,2c-0.1,0.5-0.4,0.5-1.2,0.5c-1.6,0-2.9,0-3.7-0.1
		c-0.9,0-1.5,0-1.8,0c0,0-0.5,0-0.9,0c-0.4,0-0.9,0-1.2,0c-0.2,0-0.3,0-0.3-0.2c0-0.1,0-0.2,0.2-0.2c0.2,0,0.5-0.1,0.7-0.1
		c0.4-0.1,0.5-0.5,0.6-1.1c0.1-0.9,0.1-2.5,0.1-4.5V70.4z"/>
	<path class="st3" d="M223.3,78.3c0-0.7,0.9-1.3,1.5-1.3c0.1,0,0.2,0.1,0.4,0.5c0.3,0.5,0.4,0.8,0.4,1c0,0.2-0.1,0.6-0.2,1
		c-0.2,0.6-0.9,1.9-1.6,2.6c-0.1,0.1-0.2,0.2-0.3,0.2c-0.1,0-0.2-0.1-0.2-0.2c0-0.1,0.1-0.2,0.2-0.3c0.4-0.7,0.6-1.3,0.6-1.7
		C224.1,79,223.3,78.6,223.3,78.3z"/>
	<path class="st3" d="M236.1,68.7c0-3.8,0-4.5,0-5.3c0-0.8-0.2-1.2-1-1.4c-0.2,0-0.6-0.1-0.8-0.1c-0.1,0-0.2,0-0.2-0.1
		c0-0.1,0.1-0.2,0.4-0.2c1.1,0,2.6,0.1,2.8,0.1c0.3,0,1.8-0.1,3.3-0.1c2.4,0,6.9-0.2,9.8,2.8c1.2,1.3,2.4,3.3,2.4,6.2
		c0,3.1-1.3,5.4-2.6,6.9c-1,1.1-3.2,2.8-7.4,2.8c-1,0-2.3-0.1-3.4-0.1c-1.1-0.1-1.9-0.1-2-0.1c0,0-0.5,0-1,0c-0.5,0-1,0-1.4,0
		c-0.3,0-0.4,0-0.4-0.2c0-0.1,0-0.1,0.2-0.1c0.2,0,0.5,0,0.7-0.1c0.5-0.1,0.6-0.6,0.7-1.3c0.1-1,0.1-3,0.1-5.3V68.7z M238.2,71.4
		c0,2.6,0,4.8,0,5.3c0,0.6,0.1,1.6,0.3,1.9c0.3,0.5,1.3,1,4.1,1c2.3,0,4.4-0.8,5.8-2.3c1.3-1.2,2-3.6,2-5.8c0-3.1-1.3-5.1-2.3-6.1
		c-2.3-2.4-5.1-2.8-8-2.8c-0.5,0-1.4,0.1-1.6,0.2c-0.2,0.1-0.3,0.2-0.3,0.5c0,0.8,0,3.3,0,5.2V71.4z"/>
	<path class="st3" d="M256.4,68.7c0-3.8,0-4.5,0-5.3c0-0.8-0.2-1.2-1-1.4c-0.2,0-0.6-0.1-0.8-0.1c-0.1,0-0.2,0-0.2-0.1
		c0-0.1,0.1-0.2,0.4-0.2c1.1,0,2.6,0.1,2.8,0.1c0.3,0,1.8-0.1,3.3-0.1c2.4,0,6.9-0.2,9.8,2.8c1.2,1.3,2.4,3.3,2.4,6.2
		c0,3.1-1.3,5.4-2.6,6.9c-1,1.1-3.2,2.8-7.4,2.8c-1,0-2.3-0.1-3.4-0.1c-1.1-0.1-1.9-0.1-2-0.1c0,0-0.5,0-1,0c-0.5,0-1,0-1.4,0
		c-0.3,0-0.4,0-0.4-0.2c0-0.1,0-0.1,0.2-0.1c0.2,0,0.5,0,0.7-0.1c0.5-0.1,0.6-0.6,0.7-1.3c0.1-1,0.1-3,0.1-5.3V68.7z M258.4,71.4
		c0,2.6,0,4.8,0,5.3c0,0.6,0.1,1.6,0.3,1.9c0.3,0.5,1.3,1,4.1,1c2.3,0,4.4-0.8,5.8-2.3c1.3-1.2,2-3.6,2-5.8c0-3.1-1.3-5.1-2.3-6.1
		c-2.3-2.4-5.1-2.8-8-2.8c-0.5,0-1.4,0.1-1.6,0.2c-0.2,0.1-0.3,0.2-0.3,0.5c0,0.8,0,3.3,0,5.2V71.4z"/>
	<path class="st3" d="M275.4,79.8c-0.3-0.2-0.4-0.3-0.4-0.9c0-1.2,0.1-2.2,0.1-2.6c0-0.3,0.1-0.4,0.2-0.4c0.1,0,0.2,0.1,0.2,0.3
		c0,0.2,0,0.6,0.1,0.9c0.4,1.8,2,2.5,3.6,2.5c2.3,0,3.5-1.7,3.5-3.2c0-1.7-0.7-2.7-2.8-4.4l-1.1-0.9c-2.6-2.1-3.2-3.6-3.2-5.3
		c0-2.6,2-4.4,5.1-4.4c1,0,1.7,0.1,2.3,0.2c0.5,0.1,0.7,0.1,0.9,0.1c0.2,0,0.2,0,0.2,0.2c0,0.1-0.1,0.9-0.1,2.6c0,0.4,0,0.6-0.2,0.6
		c-0.1,0-0.2-0.1-0.2-0.3c0-0.3-0.2-1-0.3-1.2c-0.1-0.3-0.8-1.3-3-1.3c-1.7,0-3,1-3,2.8c0,1.4,0.6,2.3,3,4.1l0.7,0.5
		c2.9,2.3,3.6,3.8,3.6,5.7c0,1-0.4,2.9-2.1,4c-1,0.7-2.4,1-3.7,1C277.5,80.4,276.4,80.3,275.4,79.8z"/>
	<path class="st3" d="M50.8,93.9c0-3.8,0-4.5,0-5.3c0-0.8-0.2-1.2-1-1.4c-0.2,0-0.6-0.1-0.8-0.1c-0.1,0-0.2,0-0.2-0.1
		c0-0.1,0.1-0.2,0.4-0.2c0.6,0,1.2,0,1.8,0l1,0c0.5,0,5.4,0,6,0c0.5,0,0.9,0,1.1-0.1c0.1,0,0.2-0.1,0.3-0.1c0.1,0,0.1,0.1,0.1,0.2
		c0,0.2-0.1,0.5-0.2,1.1c0,0.2-0.1,1.3-0.1,1.6c0,0.1-0.1,0.3-0.2,0.3c-0.1,0-0.2-0.1-0.2-0.3c0-0.2-0.1-0.6-0.2-0.9
		c-0.1-0.3-0.7-0.8-1.7-0.8L53,87.8c-0.1,0-0.2,0.1-0.2,0.3v6.7c0,0.1,0,0.2,0.2,0.2l3.1,0c0.4,0,0.8,0,1.1,0c0.6,0,0.9-0.1,1.1-0.4
		c0.1-0.1,0.2-0.2,0.3-0.2c0.1,0,0.1,0.1,0.1,0.2c0,0.1-0.1,0.6-0.2,1.4c0,0.5-0.1,1.5-0.1,1.6c0,0.2,0,0.5-0.2,0.5
		c-0.1,0-0.2-0.1-0.2-0.2c0-0.2,0-0.6-0.1-0.9c-0.1-0.3-0.5-0.8-1.3-0.9c-0.6-0.1-3.3-0.1-3.7-0.1c-0.1,0-0.2,0-0.2,0.2v2.1
		c0,2.3,0,4.3,0.1,5.3c0.1,0.7,0.2,1.2,1,1.3c0.3,0,0.9,0.1,1.1,0.1c0.1,0,0.2,0.1,0.2,0.1c0,0.1-0.1,0.2-0.4,0.2
		c-1.3,0-2.9-0.1-3-0.1s-1.7,0.1-2.4,0.1c-0.3,0-0.4,0-0.4-0.2c0-0.1,0-0.1,0.2-0.1c0.2,0,0.5,0,0.7-0.1c0.5-0.1,0.6-0.6,0.7-1.3
		c0.1-1,0.1-3,0.1-5.3V93.9z"/>
	<path class="st3" d="M65.3,90c0.3-0.7,0.4-0.8,0.5-0.8c0.2,0,0.3,0.3,0.5,0.8c0.4,0.9,3.8,9.4,5.1,12.6c0.8,1.9,1.4,2.1,1.8,2.3
		c0.3,0.1,0.6,0.1,0.9,0.1c0.1,0,0.3,0,0.3,0.2c0,0.1-0.2,0.2-0.5,0.2c-0.3,0-1.9,0-3.4,0c-0.4,0-0.8,0-0.8-0.1c0-0.1,0-0.1,0.1-0.1
		c0.1,0,0.3-0.2,0.2-0.6l-1.9-4.8c0-0.1-0.1-0.1-0.2-0.1h-5c-0.1,0-0.2,0-0.2,0.2l-1.2,3.3c-0.2,0.5-0.3,1-0.3,1.4
		c0,0.4,0.4,0.6,0.7,0.6h0.2c0.2,0,0.2,0.1,0.2,0.2c0,0.1-0.1,0.2-0.3,0.2c-0.5,0-1.7-0.1-1.9-0.1c-0.2,0-1.3,0.1-2.2,0.1
		c-0.3,0-0.4,0-0.4-0.2c0-0.1,0.1-0.2,0.2-0.2c0.1,0,0.5,0,0.6,0c1-0.1,1.4-0.9,1.8-1.9L65.3,90z M67.7,98.6c0.1,0,0.1,0,0.1-0.1
		l-2.1-5.7c-0.1-0.3-0.2-0.3-0.4,0l-2,5.7c0,0.1,0,0.1,0.1,0.1H67.7z"/>
	<path class="st3" d="M92,102.6c0.1,0.7,0.2,1.9,1.1,2.1c0.6,0.2,1.2,0.2,1.4,0.2c0.1,0,0.2,0,0.2,0.1c0,0.1-0.2,0.2-0.4,0.2
		c-0.5,0-2.9,0-3.7-0.1c-0.5,0-0.6-0.1-0.6-0.2c0-0.1,0-0.1,0.1-0.2c0.1,0,0.1-0.3,0.1-0.7l-1-10.5h0L84,104.1
		c-0.4,0.9-0.6,1.1-0.8,1.1c-0.2,0-0.3-0.2-0.7-1c-0.6-1-2-3.7-2.5-4.8c-0.6-1.3-2.4-4.8-2.7-5.7h-0.1l-0.8,9.4c0,0.3,0,0.7,0,1
		c0,0.3,0.2,0.5,0.5,0.6c0.4,0.1,0.7,0.1,0.8,0.1c0.1,0,0.2,0.1,0.2,0.1c0,0.1-0.1,0.2-0.4,0.2c-0.8,0-1.8-0.1-2-0.1
		c-0.2,0-1.2,0.1-1.8,0.1c-0.2,0-0.4,0-0.4-0.2c0-0.1,0.1-0.1,0.2-0.1c0.2,0,0.3,0,0.6-0.1c0.7-0.1,0.7-0.9,0.8-1.7l1.6-13.5
		c0-0.2,0.1-0.4,0.2-0.4c0.1,0,0.3,0.1,0.4,0.3l6.5,12.9l6.2-12.9c0.1-0.2,0.2-0.3,0.3-0.3c0.1,0,0.3,0.2,0.3,0.6L92,102.6z"/>
	<path class="st3" d="M98.6,99.2c0,2,0,3.6,0.1,4.5c0.1,0.6,0.1,1,0.8,1.1c0.3,0,0.8,0.1,1,0.1c0.1,0,0.2,0.1,0.2,0.2
		c0,0.1-0.1,0.2-0.3,0.2c-1.2,0-2.6-0.1-2.7-0.1c-0.1,0-1.5,0.1-2.1,0.1c-0.2,0-0.3,0-0.3-0.2c0-0.1,0-0.2,0.2-0.2
		c0.2,0,0.5,0,0.7-0.1c0.4-0.1,0.5-0.5,0.6-1.1c0.1-0.9,0.1-2.5,0.1-4.5v-3.7c0-3.2,0-3.8,0-4.5c0-0.7-0.2-1-0.7-1.1
		c-0.2,0-0.5-0.1-0.7-0.1c-0.1,0-0.2-0.1-0.2-0.2c0-0.1,0.1-0.2,0.3-0.2c0.7,0,2,0,2.2,0c0.1,0,1.5,0,2.1,0c0.2,0,0.3,0,0.3,0.2
		c0,0.1-0.1,0.2-0.2,0.2c-0.1,0-0.3,0-0.5,0c-0.6,0.1-0.7,0.4-0.8,1.1c0,0.7,0,1.2,0,4.5V99.2z"/>
	<path class="st3" d="M105.8,99.3c0,3,0,4.3,0.4,4.7c0.3,0.3,1.2,0.5,2.9,0.5c1.1,0,2.1,0,2.6-0.6c0.3-0.3,0.4-0.8,0.5-1.2
		c0-0.1,0.1-0.3,0.2-0.3c0.1,0,0.1,0.1,0.1,0.3s-0.1,1.5-0.3,2.1c-0.1,0.5-0.2,0.6-1.4,0.6c-1.5,0-2.7,0-3.7-0.1c-1,0-1.7,0-2.3,0
		c-0.1,0-0.5,0-0.9,0c-0.4,0-0.9,0-1.2,0c-0.2,0-0.3,0-0.3-0.2c0-0.1,0-0.2,0.2-0.2c0.2,0,0.5,0,0.7-0.1c0.4-0.1,0.5-0.5,0.6-1.1
		c0.1-0.9,0.1-2.5,0.1-4.5v-3.7c0-3.2,0-3.8,0-4.5c0-0.7-0.2-1-0.9-1.1c-0.2,0-0.5,0-0.7,0c-0.1,0-0.2-0.1-0.2-0.2
		c0-0.1,0.1-0.2,0.3-0.2c1,0,2.3,0,2.4,0c0.1,0,1.7,0,2.4,0c0.2,0,0.3,0,0.3,0.2c0,0.1-0.1,0.1-0.2,0.1c-0.1,0-0.5,0-0.7,0
		c-0.6,0.1-0.8,0.4-0.8,1.2c0,0.7,0,1.2,0,4.5V99.3z"/>
	<path class="st3" d="M116.7,99.9c0-1.1-0.1-1.5-0.5-2.1c-0.2-0.3-3.1-4.9-3.8-6c-0.5-0.8-1-1.2-1.4-1.5c-0.3-0.2-0.7-0.3-0.9-0.3
		c-0.1,0-0.2-0.1-0.2-0.2c0-0.1,0.1-0.1,0.3-0.1c0.4,0,2,0,2.1,0c0.1,0,1,0,1.9,0c0.2,0,0.3,0,0.3,0.1c0,0.1-0.1,0.1-0.3,0.2
		c-0.2,0.1-0.3,0.2-0.3,0.3c0,0.3,0.1,0.5,0.3,0.8l3.9,6.5c0.4-0.9,3.1-5.3,3.5-6c0.3-0.5,0.4-0.8,0.4-1.1c0-0.3-0.1-0.5-0.3-0.5
		c-0.2,0-0.3-0.1-0.3-0.2c0-0.1,0.1-0.1,0.3-0.1c0.6,0,1.3,0,1.5,0c0.1,0,1.7,0,2.1,0c0.1,0,0.3,0,0.3,0.1c0,0.1-0.1,0.2-0.3,0.2
		c-0.2,0-0.7,0.1-1,0.3c-0.4,0.2-0.6,0.5-1.1,1c-0.7,0.8-3.7,5.7-4.2,6.6c-0.4,0.7-0.3,1.4-0.3,2.1v1.8c0,0.3,0,1.2,0.1,2.1
		c0,0.6,0.2,1,0.8,1.1c0.3,0,0.8,0.1,1,0.1c0.1,0,0.2,0.1,0.2,0.2c0,0.1-0.1,0.2-0.3,0.2c-1.2,0-2.6-0.1-2.7-0.1
		c-0.1,0-1.5,0.1-2.1,0.1c-0.2,0-0.3,0-0.3-0.2c0-0.1,0-0.2,0.2-0.2c0.2,0,0.4,0,0.6-0.1c0.4-0.1,0.6-0.5,0.6-1.1c0-0.9,0-1.7,0-2.1
		V99.9z"/>
	<path class="st3" d="M133.1,93.9c0-3.8,0-4.5,0-5.3c0-0.8-0.2-1.2-1-1.4c-0.2,0-0.6-0.1-0.8-0.1c-0.1,0-0.2,0-0.2-0.1
		c0-0.1,0.1-0.2,0.4-0.2c1.1,0,2.6,0.1,2.8,0.1c0.3,0,1.8-0.1,3.3-0.1c2.4,0,6.9-0.2,9.8,2.8c1.2,1.3,2.4,3.3,2.4,6.2
		c0,3.1-1.3,5.4-2.6,6.9c-1,1.1-3.2,2.8-7.4,2.8c-1,0-2.3-0.1-3.4-0.1c-1.1-0.1-1.9-0.1-2-0.1c0,0-0.5,0-1,0c-0.5,0-1,0-1.4,0
		c-0.3,0-0.4,0-0.4-0.2c0-0.1,0-0.1,0.2-0.1c0.2,0,0.5,0,0.7-0.1c0.5-0.1,0.6-0.6,0.7-1.3c0.1-1,0.1-3,0.1-5.3V93.9z M135.2,96.5
		c0,2.6,0,4.8,0,5.3c0,0.6,0.1,1.6,0.3,1.9c0.3,0.5,1.3,1,4.1,1c2.3,0,4.4-0.8,5.8-2.3c1.3-1.2,2-3.6,2-5.8c0-3.1-1.3-5.1-2.3-6.1
		c-2.3-2.4-5.1-2.8-8-2.8c-0.5,0-1.4,0.1-1.6,0.2c-0.2,0.1-0.3,0.2-0.3,0.5c0,0.8,0,3.3,0,5.2V96.5z"/>
	<path class="st3" d="M152.8,95.6c0-3.2,0-3.8,0-4.5c0-0.7-0.2-1-0.9-1.1c-0.2,0-0.5,0-0.7,0c-0.1,0-0.2-0.1-0.2-0.2
		c0-0.1,0.1-0.2,0.3-0.2c1,0,2.4,0,2.5,0c0.1,0,4.6,0,5.1,0c0.4,0,0.8-0.1,1-0.1c0.1,0,0.2-0.1,0.3-0.1c0.1,0,0.1,0.1,0.1,0.2
		c0,0.1-0.1,0.4-0.2,1c0,0.2-0.1,1.1-0.1,1.4c0,0.1-0.1,0.2-0.2,0.2c-0.1,0-0.2-0.1-0.2-0.3c0-0.1,0-0.5-0.1-0.7
		c-0.1-0.3-0.4-0.5-1.5-0.6c-0.4,0-2.9-0.1-3.1-0.1c-0.1,0-0.1,0.1-0.1,0.2v5.6c0,0.1,0,0.2,0.1,0.2c0.3,0,3.1,0,3.6,0
		c0.5,0,0.8-0.1,1-0.3c0.1-0.1,0.2-0.3,0.3-0.3c0.1,0,0.1,0,0.1,0.2c0,0.1-0.1,0.5-0.2,1.1c0,0.4-0.1,1.2-0.1,1.3
		c0,0.2,0,0.4-0.2,0.4c-0.1,0-0.1-0.1-0.1-0.2c0-0.2,0-0.4-0.1-0.7c-0.1-0.3-0.3-0.5-1.1-0.6c-0.6-0.1-2.9-0.1-3.2-0.1
		c-0.1,0-0.1,0.1-0.1,0.1v1.7c0,0.7,0,3.1,0,3.5c0,1.4,0.4,1.7,2.6,1.7c0.6,0,1.6,0,2.1-0.2c0.6-0.2,0.9-0.6,1-1.4
		c0-0.2,0.1-0.3,0.2-0.3c0.1,0,0.1,0.2,0.1,0.3c0,0.1-0.2,1.6-0.3,2c-0.1,0.5-0.4,0.5-1.2,0.5c-1.6,0-2.9,0-3.7-0.1
		c-0.9,0-1.5,0-1.8,0c0,0-0.5,0-0.9,0c-0.4,0-0.9,0-1.2,0c-0.2,0-0.3,0-0.3-0.2c0-0.1,0-0.2,0.2-0.2c0.2,0,0.5-0.1,0.7-0.1
		c0.4-0.1,0.5-0.5,0.6-1.1c0.1-0.9,0.1-2.5,0.1-4.5V95.6z"/>
	<path class="st3" d="M165.3,102.4c0,1.7,0.2,2.2,0.8,2.4c0.4,0.1,0.9,0.1,1.1,0.1c0.1,0,0.2,0.1,0.2,0.2c0,0.1-0.1,0.2-0.4,0.2
		c-1.2,0-2.1-0.1-2.3-0.1c-0.2,0-1.1,0.1-2.1,0.1c-0.2,0-0.3,0-0.3-0.2c0-0.1,0.1-0.2,0.2-0.2c0.2,0,0.6,0,0.9-0.1
		c0.5-0.1,0.6-0.7,0.6-2.6V90.3c0-0.8,0.1-1,0.3-1c0.2,0,0.6,0.4,0.8,0.6c0.3,0.3,3.5,3.7,6.8,7.1c2.1,2.2,4.4,4.7,5.1,5.3L176.8,92
		c0-1.3-0.1-1.8-0.8-1.9c-0.4-0.1-0.9-0.1-1-0.1c-0.1,0-0.2-0.1-0.2-0.2c0-0.1,0.2-0.1,0.4-0.1c1,0,2,0,2.2,0c0.2,0,1,0,1.8,0
		c0.2,0,0.4,0,0.4,0.1c0,0.1-0.1,0.2-0.2,0.2c-0.1,0-0.3,0-0.5,0c-0.7,0.1-0.8,0.6-0.8,1.8l0,12.1c0,1.4,0,1.5-0.2,1.5
		c-0.2,0-0.4-0.2-1.6-1.3c-0.2-0.2-3.3-3.2-5.6-5.6c-2.5-2.6-4.9-5.1-5.6-5.9L165.3,102.4z"/>
	<path class="st3" d="M187.6,99.2c0,2,0,3.6,0.1,4.5c0.1,0.6,0.2,1,0.8,1.1c0.3,0,0.8,0.1,1,0.1c0.1,0,0.2,0.1,0.2,0.2
		c0,0.1-0.1,0.2-0.3,0.2c-1.2,0-2.5-0.1-2.7-0.1c-0.1,0-1.6,0.1-2.2,0.1c-0.2,0-0.3,0-0.3-0.2c0-0.1,0-0.1,0.2-0.1
		c0.2,0,0.4,0,0.6-0.1c0.4-0.1,0.6-0.5,0.6-1.1c0.1-0.9,0.1-2.5,0.1-4.5v-8.7l-3.1,0c-1.3,0-1.9,0.2-2.2,0.7
		c-0.2,0.4-0.3,0.5-0.3,0.7c0,0.2-0.1,0.2-0.2,0.2c0,0-0.1,0-0.1-0.2c0-0.2,0.4-2.1,0.5-2.2c0-0.1,0.1-0.4,0.2-0.4
		c0.1,0,0.4,0.2,1,0.2c0.6,0.1,1.4,0.1,1.7,0.1h8.1c0.7,0,1.2,0,1.5-0.1c0.3,0,0.5-0.1,0.6-0.1c0.1,0,0.1,0.1,0.1,0.2
		c0,0.6-0.1,2.1-0.1,2.4c0,0.2-0.1,0.3-0.2,0.3c-0.1,0-0.1-0.1-0.2-0.4l0-0.2c-0.1-0.6-0.5-1.1-2.6-1.1l-2.7,0V99.2z"/>
	<path class="st3" d="M197.9,99.2c0,2,0,3.6,0.1,4.5c0.1,0.6,0.1,1,0.8,1.1c0.3,0,0.8,0.1,1,0.1c0.1,0,0.2,0.1,0.2,0.2
		c0,0.1-0.1,0.2-0.3,0.2c-1.2,0-2.6-0.1-2.7-0.1c-0.1,0-1.5,0.1-2.1,0.1c-0.2,0-0.3,0-0.3-0.2c0-0.1,0-0.2,0.2-0.2
		c0.2,0,0.5,0,0.7-0.1c0.4-0.1,0.5-0.5,0.6-1.1c0.1-0.9,0.1-2.5,0.1-4.5v-3.7c0-3.2,0-3.8,0-4.5c0-0.7-0.2-1-0.7-1.1
		c-0.2,0-0.5-0.1-0.7-0.1c-0.1,0-0.2-0.1-0.2-0.2c0-0.1,0.1-0.2,0.3-0.2c0.7,0,2,0,2.2,0c0.1,0,1.5,0,2.1,0c0.2,0,0.3,0,0.3,0.2
		c0,0.1-0.1,0.2-0.2,0.2c-0.1,0-0.3,0-0.5,0c-0.6,0.1-0.7,0.4-0.8,1.1c0,0.7,0,1.2,0,4.5V99.2z"/>
	<path class="st3" d="M201.8,105c-0.3-0.1-0.3-0.2-0.3-0.8c0-1,0.1-1.9,0.1-2.2c0-0.2,0-0.3,0.2-0.3s0.2,0.1,0.2,0.2
		c0,0.2,0,0.5,0.1,0.8c0.3,1.5,2,2,3.4,2c2.1,0,3.2-1.2,3.2-2.8c0-1.5-0.8-2.2-2.7-3.6l-1-0.7c-2.3-1.7-3.1-3-3.1-4.4
		c0-2.4,1.9-3.9,4.8-3.9c0.9,0,1.7,0.1,2.2,0.2c0.4,0.1,0.6,0.1,0.8,0.1c0.2,0,0.2,0,0.2,0.1c0,0.1-0.1,0.8-0.1,2.2
		c0,0.3,0,0.5-0.2,0.5c-0.1,0-0.2-0.1-0.2-0.3c0-0.2-0.2-0.8-0.3-1c-0.1-0.2-0.9-1-2.8-1c-1.6,0-2.9,0.8-2.9,2.2
		c0,1.3,0.7,2.1,2.8,3.5l0.6,0.4c2.6,1.8,3.5,3.2,3.5,5c0,1.2-0.5,2.5-2,3.5c-0.9,0.6-2.2,0.7-3.4,0.7
		C203.9,105.5,202.7,105.4,201.8,105z"/>
	<path class="st3" d="M219.3,99.2c0,2,0,3.6,0.1,4.5c0.1,0.6,0.2,1,0.8,1.1c0.3,0,0.8,0.1,1,0.1c0.1,0,0.2,0.1,0.2,0.2
		c0,0.1-0.1,0.2-0.3,0.2c-1.2,0-2.5-0.1-2.7-0.1c-0.1,0-1.6,0.1-2.2,0.1c-0.2,0-0.3,0-0.3-0.2c0-0.1,0-0.1,0.2-0.1
		c0.2,0,0.4,0,0.6-0.1c0.4-0.1,0.6-0.5,0.6-1.1c0.1-0.9,0.1-2.5,0.1-4.5v-8.7l-3.1,0c-1.3,0-1.9,0.2-2.2,0.7
		c-0.2,0.4-0.3,0.5-0.3,0.7c0,0.2-0.1,0.2-0.2,0.2c0,0-0.1,0-0.1-0.2c0-0.2,0.4-2.1,0.5-2.2c0-0.1,0.1-0.4,0.2-0.4
		c0.1,0,0.4,0.2,1,0.2c0.6,0.1,1.4,0.1,1.7,0.1h8.1c0.7,0,1.2,0,1.5-0.1c0.3,0,0.5-0.1,0.6-0.1c0.1,0,0.1,0.1,0.1,0.2
		c0,0.6-0.1,2.1-0.1,2.4c0,0.2-0.1,0.3-0.2,0.3c-0.1,0-0.1-0.1-0.2-0.4l0-0.2c-0.1-0.6-0.5-1.1-2.6-1.1l-2.7,0V99.2z"/>
	<path class="st3" d="M227.6,95.6c0-3.2,0-3.8,0-4.5c0-0.7-0.2-1-0.9-1.1c-0.2,0-0.5,0-0.7,0c-0.1,0-0.2-0.1-0.2-0.2
		c0-0.1,0.1-0.2,0.3-0.2c1,0,2.4,0,2.5,0c0.2,0,2,0,2.7,0c1.4,0,2.9,0.1,4,0.9c0.5,0.4,1.5,1.4,1.5,2.8c0,1.5-0.6,3-2.6,4.7
		c1.8,2.2,3.2,4.1,4.5,5.4c1.1,1.2,1.9,1.4,2.4,1.4c0.4,0.1,0.6,0.1,0.8,0.1c0.1,0,0.2,0.1,0.2,0.2c0,0.1-0.1,0.2-0.5,0.2h-1.3
		c-1.2,0-1.8-0.1-2.3-0.4c-0.9-0.5-1.7-1.5-2.9-3c-0.9-1.1-1.9-2.5-2.3-3c-0.1-0.1-0.1-0.1-0.3-0.1l-2.7,0c-0.1,0-0.1,0-0.1,0.2v0.5
		c0,2,0,3.6,0.1,4.5c0.1,0.6,0.2,1,0.9,1.1c0.3,0,0.8,0.1,1,0.1c0.1,0,0.2,0.1,0.2,0.2c0,0.1-0.1,0.2-0.3,0.2
		c-1.2,0-2.5-0.1-2.6-0.1c0,0-1.5,0.1-2.1,0.1c-0.2,0-0.3,0-0.3-0.2c0-0.1,0-0.2,0.2-0.2c0.2,0,0.5,0,0.7-0.1
		c0.4-0.1,0.5-0.5,0.6-1.1c0.1-0.9,0.1-2.5,0.1-4.5V95.6z M229.5,97.3c0,0.1,0,0.2,0.1,0.3c0.3,0.2,1.4,0.3,2.4,0.3
		c0.5,0,1.1,0,1.6-0.4c0.7-0.5,1.3-1.6,1.3-3.2c0-2.6-1.4-4.1-3.7-4.1c-0.6,0-1.3,0.1-1.5,0.1c-0.1,0-0.2,0.1-0.2,0.2V97.3z"/>
	<path class="st3" d="M244.2,99.9c0-1.1-0.1-1.5-0.5-2.1c-0.2-0.3-3.1-4.9-3.8-6c-0.5-0.8-1-1.2-1.4-1.5c-0.3-0.2-0.7-0.3-0.9-0.3
		c-0.1,0-0.2-0.1-0.2-0.2c0-0.1,0.1-0.1,0.3-0.1c0.4,0,2,0,2.1,0c0.1,0,1,0,1.9,0c0.2,0,0.3,0,0.3,0.1c0,0.1-0.1,0.1-0.3,0.2
		c-0.2,0.1-0.3,0.2-0.3,0.3c0,0.3,0.1,0.5,0.3,0.8l3.9,6.5c0.4-0.9,3.1-5.3,3.5-6c0.3-0.5,0.4-0.8,0.4-1.1c0-0.3-0.1-0.5-0.3-0.5
		c-0.2,0-0.3-0.1-0.3-0.2c0-0.1,0.1-0.1,0.3-0.1c0.6,0,1.3,0,1.5,0c0.1,0,1.7,0,2.1,0c0.1,0,0.3,0,0.3,0.1c0,0.1-0.1,0.2-0.3,0.2
		c-0.2,0-0.7,0.1-1,0.3c-0.4,0.2-0.6,0.5-1.1,1c-0.7,0.8-3.7,5.7-4.2,6.6c-0.4,0.7-0.3,1.4-0.3,2.1v1.8c0,0.3,0,1.2,0.1,2.1
		c0,0.6,0.2,1,0.8,1.1c0.3,0,0.8,0.1,1,0.1c0.1,0,0.2,0.1,0.2,0.2c0,0.1-0.1,0.2-0.3,0.2c-1.2,0-2.6-0.1-2.7-0.1
		c-0.1,0-1.5,0.1-2.1,0.1c-0.2,0-0.3,0-0.3-0.2c0-0.1,0-0.2,0.2-0.2c0.2,0,0.4,0,0.6-0.1c0.4-0.1,0.6-0.5,0.6-1.1c0-0.9,0-1.7,0-2.1
		V99.9z"/>
</g>
</svg>
