<?xml version="1.0" encoding="UTF-8" standalone="no"?>
<svg width="22px" height="16px" viewBox="0 0 22 16" version="1.1" xmlns="http://www.w3.org/2000/svg" xmlns:xlink="http://www.w3.org/1999/xlink">
    <!-- Generator: Sketch 39.1 (31720) - http://www.bohemiancoding.com/sketch -->
    <title>Fill 1</title>
    <desc>Created with Sketch.</desc>
    <defs></defs>
    <g id="Welcome" stroke="none" stroke-width="1" fill="none" fill-rule="evenodd">
        <g id="Desktop" transform="translate(-347.000000, -2460.000000)" fill="#F55433">
            <path d="M362.330826,2467.15389 C362.870373,2467.49474 362.85611,2468.16266 362.306725,2468.50891 C360.249362,2469.8054 358.186589,2471.09451 356.11939,2472.37575 C355.484425,2472.76922 354.866675,2472.41706 354.854379,2471.65176 C354.836673,2470.55299 354.849461,2469.45373 354.848969,2468.35447 L354.848969,2467.80509 C354.849461,2466.56172 354.849461,2465.31884 354.849461,2464.07547 C354.849461,2463.75135 354.891759,2463.44641 355.196699,2463.24968 C355.491311,2463.05933 355.786414,2463.05884 356.081518,2463.24279 L362.330826,2467.15389 Z M368.96426,2466.19284 C368.936225,2465.008 368.794575,2463.82119 368.62735,2462.64619 C368.437008,2461.30986 367.432181,2460.37094 366.083066,2460.28241 C364.009472,2460.14715 361.931452,2459.99567 359.855891,2460.00009 C356.679594,2460.00649 353.502314,2460.09846 350.328476,2460.23519 C348.48949,2460.31438 347.638608,2461.11411 347.328257,2462.94031 C347.14972,2463.99235 347.060205,2465.06899 347.035613,2466.13726 C346.982495,2468.42382 346.928392,2470.71432 347.354817,2472.98219 C347.605655,2474.31606 348.565233,2475.27809 349.895166,2475.36269 C352.385839,2475.52155 354.879955,2475.62927 357.540805,2475.76649 C360.267561,2475.64156 363.154656,2475.53483 366.037817,2475.36613 C367.43464,2475.28449 368.372085,2474.34016 368.639646,2472.95858 C369.072956,2470.71776 369.017378,2468.45235 368.96426,2466.19284 L368.96426,2466.19284 Z" id="Fill-1"></path>
        </g>
    </g>
</svg>